<?xml version="1.0" encoding="utf-8"?>
<!-- Generator: Adobe Illustrator 22.0.0, SVG Export Plug-In . SVG Version: 6.00 Build 0)  -->
<svg version="1.1" id="Layer_1" xmlns="http://www.w3.org/2000/svg" xmlns:xlink="http://www.w3.org/1999/xlink" x="0px" y="0px"
	 viewBox="0 0 643.9 646.2" style="enable-background:new 0 0 643.9 646.2;" xml:space="preserve">
<style type="text/css">
	.st0{fill:none;}
	.st1{fill:#F04E3E;}
	.st2{fill:#C68F15;}
	.st3{fill:#F99D1C;}
	.st4{fill:#725926;}
	.st5{fill:#7C6640;}
	.st6{fill:#FCAF17;}
	.st7{fill:#A8751A;}
	.st8{fill:#9B680E;}
	.st9{fill:#FFFFFF;}
</style>
<g id="XMLID_11_">
	<path id="XMLID_23_" class="st0" d="M582.6,159c-0.8,0.1-1.5,0.3-2.3,0.4c0.2,0.2,0.3,0.5,0.5,0.7C581.4,159.8,582,159.4,582.6,159
		z"/>
	<path id="XMLID_27_" class="st1" d="M540.8,167c-1.1-0.1-2.2-0.2-3.2-0.3c0.2,0.3,0.4,0.5,0.6,0.8C539,167.4,539.9,167.2,540.8,167
		z"/>
	<path id="XMLID_28_" class="st2" d="M547.4,181.8c6.4-4.2,12.8-8.4,19.2-12.6c-8.6-0.7-17.2-1.5-25.9-2.2c-0.9,0.2-1.8,0.4-2.7,0.5
		C541.3,172.2,544.5,176.9,547.4,181.8z"/>
	<path id="XMLID_29_" class="st3" d="M55.9,319.7c0-3.7,0.1-7.4,0.2-11.1c-13.4,5.8-26.7,11.7-39.9,17.9
		c1.1,51.8,15.2,100.5,39.2,142.9c8.1-13,16.4-25.8,24.8-38.6C64.6,397,55.9,359.3,55.9,319.7z"/>
	<path id="XMLID_30_" class="st4" d="M155.8,527c-8.7,10-17.2,20.1-25.6,30.4c38.2,30.7,84,52.4,134.1,61.8
		c12.8-11.7,25.7-23.4,38.6-35C247.5,580.4,196.7,559.7,155.8,527z"/>
	<path id="XMLID_31_" class="st2" d="M80.2,430.7c-8.4,12.8-16.7,25.7-24.8,38.6c10.7,19,23.4,36.7,37.8,52.9
		c13.3-5.2,26.7-10.3,40.1-15.3C111.4,485,93.4,459.2,80.2,430.7z"/>
	<path id="XMLID_32_" class="st5" d="M133.3,506.9c-13.4,5-26.8,10.1-40.1,15.3c11.3,12.7,23.7,24.5,36.9,35.1
		c8.4-10.2,17-20.3,25.6-30.4C148,520.8,140.4,514,133.3,506.9z"/>
	<path id="XMLID_33_" class="st2" d="M321,584.8c-6.1,0-12.1-0.2-18.1-0.6c-12.9,11.6-25.8,23.3-38.6,35c18.4,3.5,37.3,5.3,56.7,5.3
		c148.3,0,271.8-105.9,299.1-246.1c-14.1,2.3-28.2,4.7-42.3,7.2C548.6,500.1,444.7,584.8,321,584.8z"/>
	<path id="XMLID_34_" class="st4" d="M625.6,310.1c-11.1,8.8-22.2,17.7-33.2,26.6c-2.5,2-4.9,4-7.4,6c-1.3,14.6-3.7,28.9-7.2,42.8
		c14.1-2.5,28.2-4.9,42.3-7.2c3.7-19,5.7-38.6,5.7-58.7C625.8,316.5,625.7,313.3,625.6,310.1z"/>
	<path id="XMLID_35_" class="st2" d="M321,54.6c21.5,0,42.4,2.6,62.4,7.4c10.9-10.7,22-21.3,33.2-31.8c-30-9.9-62.2-15.3-95.5-15.3
		c-104.3,0-196.3,52.4-251.2,132.2c17.3-1.1,34.7-1.8,52.1-2.3C170.4,89.5,241.6,54.6,321,54.6z"/>
	<path id="XMLID_36_" class="st3" d="M566.6,169.2c4.7-3,9.4-6.1,14.1-9.1c-0.2-0.2-0.3-0.5-0.5-0.7c-13.2,2.5-26.4,5-39.5,7.6
		C549.4,167.7,558,168.5,566.6,169.2z"/>
	<path id="XMLID_37_" class="st6" d="M537.5,166.7c1.1,0.1,2.2,0.2,3.2,0.3c13.2-2.6,26.3-5.1,39.5-7.6
		C542.9,99.1,485.1,52.8,416.5,30.2c-11.2,10.5-22.2,21.1-33.2,31.8C446.6,77.3,501,115.2,537.5,166.7z"/>
	<path id="XMLID_38_" class="st6" d="M121.8,144.8c-17.4,0.5-34.8,1.2-52.1,2.3C36,196.2,16.2,255.6,16.2,319.7c0,2.3,0,4.6,0.1,6.8
		c13.2-6.1,26.5-12.1,39.9-17.9C58.7,245.9,83.1,188.9,121.8,144.8z"/>
	<path id="XMLID_39_" class="st2" d="M587.1,171c-2-3.6-4.2-7.3-6.3-10.8c-4.7,3-9.4,6-14.1,9.1C573.4,169.8,580.3,170.4,587.1,171z
		"/>
	<path id="XMLID_40_" class="st7" d="M547.4,181.8C571.9,222,586,269.2,586,319.7c0,7.8-0.4,15.5-1,23.1c2.5-2,4.9-4,7.4-6
		c11-8.9,22-17.8,33.2-26.6c-1.6-50.4-15.4-97.8-38.5-139.2c-6.8-0.6-13.7-1.2-20.5-1.8C560.2,173.4,553.8,177.6,547.4,181.8z"/>
	<path id="XMLID_41_" class="st6" d="M474.8,161.4c12,1,24,2.1,36.1,3.1c-35.8-43.8-86.5-74.9-144.3-85.7
		c-22.7,22.7-44.8,45.9-66.5,69.5C358.5,151.5,416.9,156.4,474.8,161.4z"/>
	<path id="XMLID_42_" class="st3" d="M300.1,148.2c-30.2,33-59.4,66.9-87.6,101.6c36.1-11.8,72.4-22.5,109-32.4
		c64.5-17.5,129.7-32.3,195.2-45.6c-1.9-2.5-3.8-5-5.8-7.4c-12-1-24-2.1-36.1-3.1C416.9,156.4,358.5,151.5,300.1,148.2z"/>
	<path id="XMLID_43_" class="st7" d="M192.6,485.6c106.8-36.9,216.1-66.6,326.9-89c14.4-11.9,28.8-23.8,43.2-35.7
		c2.3-13.4,3.5-27.2,3.5-41.3c0-46.4-12.9-89.8-35.3-126.8C407.3,276.9,293.5,375.4,192.6,485.6z"/>
	<path id="XMLID_44_" class="st2" d="M321.5,217.4c-36.6,9.9-72.9,20.7-109,32.4C170.4,301.7,130.6,355.5,93.3,411
		c13.6,33.8,34.5,63.9,60.7,88.3c12.8-4.7,25.7-9.2,38.6-13.7c100.9-110.3,214.7-208.8,338.3-292.8c-4.4-7.3-9.2-14.3-14.3-21.1
		C451.1,185.1,386,199.9,321.5,217.4z"/>
	<path id="XMLID_45_" class="st2" d="M300.1,148.2c21.7-23.6,43.8-46.8,66.5-69.5c-14.8-2.8-30-4.2-45.5-4.2
		c-66.7,0-127.1,26.6-171.3,69.8C199.7,143.7,249.9,145.4,300.1,148.2z"/>
	<path id="XMLID_46_" class="st8" d="M324.4,564.9c109.7-1.5,202-75,231.7-175.4c-12.2,2.3-24.4,4.7-36.6,7.1
		C453.5,451.6,388.4,507.7,324.4,564.9z"/>
	<path id="XMLID_47_" class="st4" d="M192.6,485.6c-8,8.7-15.9,17.5-23.7,26.4c41.8,33.1,94.6,52.9,152.1,52.9c1.1,0,2.3,0,3.4,0
		c64.1-57.2,129.1-113.3,195.2-168.3C408.8,419,299.5,448.8,192.6,485.6z"/>
	<path id="XMLID_48_" class="st6" d="M300.1,148.2c-50.2-2.8-100.4-4.5-150.4-4c-41.2,40.2-68.3,94.8-73.1,155.7
		c44.6-18.5,90-35.2,135.9-50.2C240.6,215.1,269.9,181.2,300.1,148.2z"/>
	<path id="XMLID_49_" class="st5" d="M556.1,389.5c2.8-9.3,5-18.8,6.6-28.6c-14.4,11.8-28.9,23.7-43.2,35.7
		C531.7,394.2,543.9,391.8,556.1,389.5z"/>
	<path id="XMLID_50_" class="st3" d="M76.6,300c-0.5,6.5-0.8,13.1-0.8,19.7c0,32.3,6.2,63.1,17.6,91.3
		c37.3-55.5,77-109.3,119.1-161.2C166.5,264.8,121.1,281.4,76.6,300z"/>
	<path id="XMLID_51_" class="st5" d="M154,499.3c4.8,4.4,9.7,8.7,14.9,12.8c7.8-8.9,15.7-17.7,23.7-26.4
		C179.7,490.1,166.9,494.6,154,499.3z"/>
</g>
<g id="XMLID_1_">
	<path id="XMLID_9_" class="st9" d="M321,223.8c-111.6,0-202.1,95.8-202.1,95.8s90.5,95.8,202.1,95.8s202.1-95.8,202.1-95.8
		S432.6,223.8,321,223.8z M321,398.8c-43.8,0-79.2-35.5-79.2-79.2c0-43.8,35.5-79.2,79.2-79.2s79.2,35.5,79.2,79.2
		C400.2,363.4,364.8,398.8,321,398.8z"/>
	<path id="XMLID_10_" class="st9" d="M321,258.7c-33.6,0-60.9,27.3-60.9,60.9s27.3,60.9,60.9,60.9s60.9-27.3,60.9-60.9
		S354.6,258.7,321,258.7z M321,355.9c-20,0-36.3-16.2-36.3-36.3c0-20,16.2-36.3,36.3-36.3c20,0,36.3,16.2,36.3,36.3
		C357.3,339.6,341,355.9,321,355.9z"/>
</g>
</svg>
