<?xml version="1.0" encoding="utf-8"?>
<!-- Generator: Adobe Illustrator 22.0.0, SVG Export Plug-In . SVG Version: 6.00 Build 0)  -->
<svg version="1.1" id="Layer_1" xmlns="http://www.w3.org/2000/svg" xmlns:xlink="http://www.w3.org/1999/xlink" x="0px" y="0px"
	 viewBox="0 0 1021.1 195.9" style="enable-background:new 0 0 1021.1 195.9;" xml:space="preserve">
<style type="text/css">
	.st0{enable-background:new    ;}
	.st1{stroke:#FFFFFF;stroke-width:4;stroke-miterlimit:10;}
	.st2{fill:#DE9A13;}
	.st3{fill:#FFFFFF;}
	.st4{fill:#FFFFFF;}
	.st5{fill:#E69811;}
</style>
<g class="st0">
	<path d="M253.2,85c0.4,1.3,0.8,2.8,1.3,4.5c0.5,1.7,1,3.4,1.5,5.2c0.5,1.8,1.1,3.5,1.6,5.3c0.5,1.8,1.1,3.4,1.6,4.9
		c0.4-1.6,0.9-3.4,1.3-5.4c0.4-1.9,0.9-3.9,1.2-6c0.4-2.1,0.8-4.1,1.1-6.2c0.4-2,0.7-4,1-5.9h7.8c-1.1,5.6-2.4,11.3-3.9,17.1
		c-1.5,5.8-3.1,11.3-4.8,16.4h-6.9c-1.1-3.1-2.2-6.3-3.3-9.7c-1.1-3.4-2.1-6.8-3.1-10.2c-1,3.4-2.1,6.8-3.1,10.2
		c-1,3.4-2.1,6.7-3.2,9.7h-6.9c-1.7-5.2-3.3-10.7-4.8-16.4c-1.5-5.8-2.8-11.5-3.9-17.1h8.2c0.3,1.9,0.7,3.9,1.1,5.9
		c0.4,2,0.8,4.1,1.2,6.2c0.4,2.1,0.9,4.1,1.3,6s0.9,3.7,1.3,5.4c0.6-1.6,1.1-3.3,1.7-5c0.5-1.8,1.1-3.5,1.6-5.3
		c0.5-1.8,1-3.5,1.4-5.1s0.8-3.1,1.2-4.4H253.2z"/>
	<path d="M297.1,114.9c-0.4-1.2-0.8-2.4-1.2-3.6s-0.9-2.5-1.3-3.7h-13.1c-0.4,1.2-0.8,2.4-1.3,3.7c-0.4,1.2-0.8,2.4-1.2,3.6h-7.8
		c1.3-3.6,2.5-6.9,3.6-10c1.1-3.1,2.2-5.9,3.3-8.7c1.1-2.7,2.2-5.3,3.2-7.7c1.1-2.4,2.1-4.8,3.3-7.1h7.2c1.1,2.3,2.2,4.7,3.3,7.1
		c1.1,2.4,2.1,5,3.2,7.7c1.1,2.7,2.2,5.6,3.3,8.7c1.1,3.1,2.3,6.4,3.6,10H297.1z M288,89c-0.2,0.5-0.4,1.1-0.7,2
		c-0.3,0.8-0.7,1.8-1.1,2.9s-0.9,2.3-1.4,3.6c-0.5,1.3-1,2.7-1.6,4.2h9.6c-0.5-1.5-1-2.8-1.5-4.2c-0.5-1.3-0.9-2.5-1.4-3.6
		c-0.4-1.1-0.8-2.1-1.1-2.9C288.5,90.1,288.2,89.5,288,89z"/>
	<path d="M316.3,114.9c-1.3-2.8-2.6-5.7-3.9-8.8c-1.3-3-2.5-6-3.7-9c-1.2-3-2.2-5.8-3.2-8.5c-1-2.7-1.8-5.1-2.5-7.3h8.3
		c0.6,1.9,1.3,4,2.1,6.3c0.8,2.2,1.6,4.5,2.3,6.7c0.8,2.2,1.6,4.4,2.3,6.4c0.7,2,1.4,3.8,2.1,5.3c0.6-1.5,1.3-3.2,2.1-5.3
		c0.7-2,1.5-4.2,2.3-6.4c0.8-2.2,1.6-4.5,2.3-6.7c0.8-2.2,1.5-4.3,2.1-6.3h8c-0.8,2.1-1.6,4.6-2.6,7.3s-2,5.5-3.2,8.5
		c-1.2,3-2.4,6-3.7,9c-1.3,3-2.6,5.9-3.9,8.8H316.3z"/>
	<path d="M349.7,81.4c0.6,1.1,1.3,2.4,2,3.9c0.8,1.6,1.6,3.3,2.4,5.1c0.8,1.8,1.6,3.7,2.4,5.6s1.6,3.7,2.3,5.4
		c0.7-1.7,1.5-3.5,2.3-5.4s1.6-3.8,2.4-5.6c0.8-1.8,1.6-3.5,2.4-5.1c0.8-1.6,1.4-2.9,2-3.9h6.9c0.3,2.2,0.6,4.7,0.9,7.5
		c0.3,2.8,0.5,5.6,0.7,8.6c0.2,3,0.4,6,0.6,9c0.2,3,0.3,5.8,0.5,8.5h-7.4c-0.1-3.3-0.2-6.8-0.4-10.6c-0.2-3.8-0.4-7.7-0.7-11.6
		c-0.6,1.4-1.2,2.9-1.9,4.5c-0.7,1.6-1.4,3.3-2.1,4.9c-0.7,1.6-1.4,3.2-2,4.7c-0.6,1.5-1.2,2.8-1.6,3.8H356c-0.5-1.1-1-2.3-1.6-3.8
		s-1.3-3.1-2-4.7c-0.7-1.6-1.4-3.3-2.1-4.9c-0.7-1.6-1.4-3.1-1.9-4.5c-0.3,3.9-0.6,7.8-0.7,11.6c-0.2,3.8-0.3,7.4-0.4,10.6h-7.4
		c0.1-2.6,0.3-5.5,0.5-8.5c0.2-3,0.4-6,0.6-9c0.2-3,0.5-5.9,0.7-8.6c0.3-2.8,0.6-5.2,0.9-7.5H349.7z"/>
	<path d="M406.6,114.9c-0.4-1.2-0.8-2.4-1.2-3.6s-0.9-2.5-1.3-3.7H391c-0.4,1.2-0.8,2.4-1.3,3.7c-0.4,1.2-0.8,2.4-1.2,3.6h-7.8
		c1.3-3.6,2.5-6.9,3.6-10c1.1-3.1,2.2-5.9,3.3-8.7c1.1-2.7,2.2-5.3,3.2-7.7c1.1-2.4,2.1-4.8,3.3-7.1h7.2c1.1,2.3,2.2,4.7,3.3,7.1
		c1.1,2.4,2.1,5,3.2,7.7c1.1,2.7,2.2,5.6,3.3,8.7c1.1,3.1,2.3,6.4,3.6,10H406.6z M397.6,89c-0.2,0.5-0.4,1.1-0.7,2
		c-0.3,0.8-0.7,1.8-1.1,2.9s-0.9,2.3-1.4,3.6c-0.5,1.3-1,2.7-1.6,4.2h9.6c-0.5-1.5-1-2.8-1.5-4.2c-0.5-1.3-0.9-2.5-1.4-3.6
		c-0.4-1.1-0.8-2.1-1.1-2.9C398,90.1,397.8,89.5,397.6,89z"/>
	<path d="M439.7,109.1c1.1,0,1.9-0.1,2.6-0.3c0.7-0.2,1.2-0.4,1.7-0.7c0.4-0.3,0.7-0.7,0.9-1.1c0.2-0.4,0.2-0.9,0.2-1.4
		c0-1.1-0.5-2-1.5-2.7c-1-0.7-2.8-1.5-5.3-2.3c-1.1-0.4-2.2-0.8-3.3-1.3c-1.1-0.5-2.1-1.1-3-1.9c-0.9-0.8-1.6-1.7-2.1-2.8
		c-0.5-1.1-0.8-2.4-0.8-3.9s0.3-2.9,0.9-4.2c0.6-1.2,1.4-2.3,2.5-3.2c1.1-0.9,2.4-1.5,3.9-2c1.5-0.5,3.2-0.7,5.1-0.7
		c2.3,0,4.2,0.2,5.9,0.7c1.6,0.5,3,1,4.1,1.6l-2.2,5.9c-0.9-0.5-2-0.9-3.1-1.3c-1.1-0.4-2.5-0.6-4.1-0.6c-1.8,0-3.1,0.2-3.9,0.8
		c-0.8,0.5-1.2,1.3-1.2,2.3c0,0.6,0.1,1.1,0.4,1.5s0.7,0.8,1.2,1.1c0.5,0.3,1.1,0.6,1.8,0.9c0.7,0.3,1.5,0.6,2.3,0.8
		c1.7,0.6,3.3,1.3,4.5,1.9c1.3,0.6,2.4,1.4,3.2,2.2c0.9,0.8,1.5,1.8,1.9,3c0.4,1.1,0.6,2.5,0.6,4.1c0,3.1-1.1,5.6-3.3,7.3
		c-2.2,1.7-5.5,2.6-9.9,2.6c-1.5,0-2.8-0.1-4-0.3c-1.2-0.2-2.2-0.4-3.2-0.7c-0.9-0.3-1.7-0.5-2.4-0.8c-0.7-0.3-1.2-0.6-1.7-0.8
		l2.1-6c1,0.5,2.2,1,3.7,1.5C435.8,108.9,437.6,109.1,439.7,109.1z"/>
	<path d="M458.8,114.9V81.4h22.6v6.3h-15.1v6.6h13.4v6.2h-13.4v8.1h16.2v6.3H458.8z"/>
	<path d="M503.3,115.6c-5.4,0-9.6-1.5-12.5-4.5c-2.9-3-4.3-7.3-4.3-12.9c0-2.8,0.4-5.2,1.3-7.4c0.9-2.2,2.1-4,3.6-5.5
		c1.5-1.5,3.3-2.6,5.4-3.4c2.1-0.8,4.4-1.2,6.8-1.2c1.4,0,2.7,0.1,3.9,0.3c1.2,0.2,2.2,0.5,3,0.7c0.9,0.3,1.6,0.6,2.2,0.8
		s1,0.5,1.3,0.7l-2.2,6.1c-1-0.5-2.2-1-3.6-1.4c-1.4-0.4-2.9-0.6-4.7-0.6c-1.2,0-2.3,0.2-3.4,0.6c-1.1,0.4-2.1,1-2.9,1.9
		c-0.9,0.9-1.5,2-2.1,3.3c-0.5,1.4-0.8,3-0.8,4.9c0,1.5,0.2,3,0.5,4.3c0.3,1.3,0.9,2.5,1.6,3.5c0.8,1,1.7,1.7,3,2.3
		c1.2,0.6,2.7,0.8,4.4,0.8c1.1,0,2.1-0.1,2.9-0.2c0.9-0.1,1.6-0.3,2.3-0.5c0.7-0.2,1.3-0.4,1.8-0.6c0.5-0.2,1-0.4,1.4-0.6l2.1,6
		c-1.1,0.6-2.6,1.2-4.5,1.7S505.9,115.6,503.3,115.6z"/>
	<path d="M532.5,115.6c-2.4,0-4.4-0.3-6.1-1c-1.7-0.7-3.1-1.6-4.2-2.8c-1.1-1.2-1.9-2.6-2.5-4.2s-0.8-3.4-0.8-5.4V81.4h7.5v20.2
		c0,1.4,0.2,2.5,0.5,3.5c0.3,1,0.7,1.7,1.3,2.3c0.5,0.6,1.2,1,1.9,1.3s1.6,0.4,2.5,0.4c1.8,0,3.3-0.6,4.5-1.7c1.1-1.1,1.7-3,1.7-5.8
		V81.4h7.5v20.8c0,2-0.3,3.8-0.8,5.4c-0.5,1.6-1.4,3.1-2.5,4.2c-1.1,1.2-2.6,2.1-4.3,2.7C537,115.3,534.9,115.6,532.5,115.6z"/>
	<path d="M563.4,81c5,0,8.9,0.9,11.6,2.7c2.7,1.8,4,4.6,4,8.3c0,2.4-0.5,4.3-1.6,5.7c-1.1,1.5-2.6,2.6-4.7,3.5
		c0.7,0.8,1.4,1.8,2.1,2.9c0.7,1.1,1.5,2.2,2.2,3.4c0.7,1.2,1.4,2.4,2.1,3.7c0.7,1.3,1.3,2.5,1.9,3.7h-8.4c-0.6-1.1-1.2-2.2-1.9-3.3
		c-0.6-1.1-1.3-2.2-1.9-3.3c-0.7-1.1-1.3-2.1-2-3c-0.6-1-1.3-1.8-1.9-2.6h-3.7v12.2h-7.5v-33c1.6-0.3,3.3-0.5,5.1-0.7
		C560.4,81.1,562,81,563.4,81z M563.8,87.4c-0.5,0-1,0-1.5,0s-0.8,0.1-1.2,0.1v9.1h2.1c2.8,0,4.9-0.4,6.1-1.1
		c1.2-0.7,1.8-1.9,1.8-3.6c0-1.6-0.6-2.8-1.9-3.5S566.3,87.4,563.8,87.4z"/>
	<path d="M585.8,81.4h7.5v33.5h-7.5V81.4z"/>
	<path d="M626,81.4v6.4h-10.1v27.1h-7.5V87.8h-10.1v-6.4H626z"/>
	<path d="M644.7,95.1c1.4-2.3,2.6-4.6,3.9-6.8c1.2-2.3,2.4-4.6,3.4-6.9h8.3c-1.8,3.6-3.7,7.1-5.7,10.5c-2,3.4-4,6.8-6.2,10.2v12.8
		h-7.5v-12.7c-2.2-3.4-4.3-6.8-6.3-10.3c-2-3.4-3.9-6.9-5.7-10.5h8.8c1,2.3,2.1,4.6,3.3,6.9C642.1,90.6,643.4,92.9,644.7,95.1z"/>
	<path d="M691.3,115.6c-5.4,0-9.6-1.5-12.5-4.5c-2.9-3-4.3-7.3-4.3-12.9c0-2.8,0.4-5.2,1.3-7.4c0.9-2.2,2.1-4,3.6-5.5
		c1.5-1.5,3.3-2.6,5.4-3.4s4.4-1.2,6.8-1.2c1.4,0,2.7,0.1,3.9,0.3c1.2,0.2,2.2,0.5,3,0.7c0.9,0.3,1.6,0.6,2.2,0.8
		c0.6,0.3,1,0.5,1.3,0.7l-2.2,6.1c-1-0.5-2.2-1-3.6-1.4c-1.4-0.4-2.9-0.6-4.7-0.6c-1.2,0-2.3,0.2-3.4,0.6s-2.1,1-3,1.9
		c-0.9,0.9-1.5,2-2.1,3.3c-0.5,1.4-0.8,3-0.8,4.9c0,1.5,0.2,3,0.5,4.3c0.3,1.3,0.9,2.5,1.6,3.5c0.8,1,1.7,1.7,3,2.3
		c1.2,0.6,2.7,0.8,4.4,0.8c1.1,0,2.1-0.1,3-0.2c0.9-0.1,1.6-0.3,2.3-0.5c0.7-0.2,1.3-0.4,1.8-0.6c0.5-0.2,1-0.4,1.4-0.6l2.1,6
		c-1.1,0.6-2.6,1.2-4.5,1.7C696.1,115.3,693.9,115.6,691.3,115.6z"/>
	<path d="M738.1,98.1c0,2.9-0.4,5.4-1.3,7.6c-0.9,2.2-2,4-3.5,5.5c-1.5,1.5-3.2,2.6-5.3,3.3c-2,0.7-4.2,1.1-6.6,1.1
		c-2.3,0-4.4-0.4-6.5-1.1s-3.8-1.8-5.3-3.3c-1.5-1.5-2.7-3.3-3.6-5.5c-0.9-2.2-1.3-4.7-1.3-7.6c0-2.9,0.5-5.4,1.4-7.6
		c0.9-2.2,2.1-4,3.7-5.5c1.5-1.5,3.3-2.6,5.3-3.3c2-0.7,4.1-1.1,6.4-1.1c2.3,0,4.5,0.4,6.5,1.1c2,0.7,3.8,1.9,5.3,3.3
		c1.5,1.5,2.7,3.3,3.6,5.5C737.7,92.7,738.1,95.3,738.1,98.1z M712.5,98.1c0,1.6,0.2,3.1,0.6,4.4s1,2.5,1.7,3.4
		c0.8,1,1.7,1.7,2.8,2.2c1.1,0.5,2.4,0.8,3.8,0.8c1.4,0,2.6-0.3,3.7-0.8c1.1-0.5,2-1.2,2.8-2.2c0.8-1,1.3-2.1,1.7-3.4
		c0.4-1.3,0.6-2.8,0.6-4.4c0-1.6-0.2-3.1-0.6-4.5c-0.4-1.3-1-2.5-1.7-3.4c-0.8-1-1.7-1.7-2.8-2.2c-1.1-0.5-2.4-0.8-3.7-0.8
		c-1.4,0-2.7,0.3-3.8,0.8c-1.1,0.5-2,1.3-2.8,2.2c-0.8,1-1.3,2.1-1.7,3.4C712.7,95,712.5,96.5,712.5,98.1z"/>
	<path d="M753.3,81.4c0.6,1.1,1.3,2.4,2,3.9c0.8,1.6,1.6,3.3,2.4,5.1c0.8,1.8,1.6,3.7,2.4,5.6c0.8,1.9,1.6,3.7,2.3,5.4
		c0.7-1.7,1.5-3.5,2.3-5.4c0.8-1.9,1.6-3.8,2.4-5.6s1.6-3.5,2.4-5.1c0.8-1.6,1.4-2.9,2-3.9h6.9c0.3,2.2,0.6,4.7,0.9,7.5
		c0.3,2.8,0.5,5.6,0.7,8.6c0.2,3,0.4,6,0.6,9c0.2,3,0.3,5.8,0.5,8.5h-7.4c-0.1-3.3-0.2-6.8-0.4-10.6s-0.4-7.7-0.7-11.6
		c-0.6,1.4-1.2,2.9-1.9,4.5s-1.4,3.3-2.1,4.9c-0.7,1.6-1.4,3.2-2,4.7c-0.6,1.5-1.2,2.8-1.6,3.8h-5.3c-0.5-1.1-1-2.3-1.7-3.8
		c-0.6-1.5-1.3-3.1-2-4.7c-0.7-1.6-1.4-3.3-2.1-4.9c-0.7-1.6-1.4-3.1-1.9-4.5c-0.3,3.9-0.6,7.8-0.7,11.6c-0.2,3.8-0.3,7.4-0.4,10.6
		h-7.4c0.1-2.6,0.3-5.5,0.5-8.5c0.2-3,0.4-6,0.6-9c0.2-3,0.5-5.9,0.7-8.6c0.3-2.8,0.6-5.2,0.9-7.5H753.3z"/>
	<path d="M797.8,81c5,0,8.8,0.9,11.5,2.6c2.7,1.8,4,4.6,4,8.6c0,4-1.4,6.9-4.1,8.7c-2.7,1.8-6.6,2.7-11.6,2.7h-2.4v11.2h-7.5v-33
		c1.6-0.3,3.4-0.5,5.2-0.7S796.4,81,797.8,81z M798.3,87.4c-0.5,0-1.1,0-1.6,0c-0.5,0-1,0.1-1.4,0.1v9.7h2.4c2.6,0,4.6-0.4,5.9-1.1
		c1.3-0.7,2-2,2-4c0-0.9-0.2-1.7-0.5-2.3s-0.8-1.1-1.5-1.5c-0.6-0.4-1.4-0.6-2.3-0.8C800.4,87.5,799.4,87.4,798.3,87.4z"/>
	<path d="M838.1,114.9c-0.4-1.2-0.8-2.4-1.2-3.6c-0.4-1.2-0.9-2.5-1.3-3.7h-13.1c-0.4,1.2-0.8,2.4-1.3,3.7s-0.8,2.4-1.2,3.6h-7.8
		c1.3-3.6,2.5-6.9,3.6-10c1.1-3.1,2.2-5.9,3.3-8.7c1.1-2.7,2.2-5.3,3.2-7.7c1.1-2.4,2.1-4.8,3.3-7.1h7.2c1.1,2.3,2.2,4.7,3.3,7.1
		c1.1,2.4,2.1,5,3.2,7.7c1.1,2.7,2.2,5.6,3.3,8.7c1.1,3.1,2.3,6.4,3.6,10H838.1z M829,89c-0.2,0.5-0.4,1.1-0.7,2
		c-0.3,0.8-0.7,1.8-1.1,2.9s-0.9,2.3-1.4,3.6s-1,2.7-1.6,4.2h9.6c-0.5-1.5-1-2.8-1.5-4.2s-0.9-2.5-1.4-3.6c-0.4-1.1-0.8-2.1-1.1-2.9
		C829.5,90.1,829.2,89.5,829,89z"/>
	<path d="M873,114.9c-2.2-3.8-4.5-7.6-7-11.4c-2.5-3.7-5.2-7.3-8-10.6v22h-7.4V81.4h6.1c1.1,1.1,2.2,2.4,3.5,3.9
		c1.3,1.5,2.6,3.2,3.9,5c1.3,1.8,2.7,3.6,4,5.5c1.3,1.9,2.6,3.7,3.7,5.4V81.4h7.5v33.5H873z"/>
	<path d="M899.3,95.1c1.4-2.3,2.6-4.6,3.9-6.8c1.2-2.3,2.4-4.6,3.4-6.9h8.3c-1.8,3.6-3.7,7.1-5.7,10.5c-2,3.4-4,6.8-6.2,10.2v12.8
		h-7.5v-12.7c-2.2-3.4-4.3-6.8-6.3-10.3c-2-3.4-3.9-6.9-5.7-10.5h8.8c1,2.3,2.1,4.6,3.3,6.9C896.7,90.6,898,92.9,899.3,95.1z"/>
	<path d="M953,108.4v6.5h-22.4V81.4h7.5v27H953z"/>
	<path d="M978.9,81.4v6.4h-10.1v27.1h-7.5V87.8h-10.1v-6.4H978.9z"/>
	<path d="M1013.1,98.1c0,2.9-0.5,5.4-1.4,7.6s-2.2,3.9-3.8,5.4s-3.7,2.5-6.1,3.2s-5.1,1.1-8,1.1c-1.4,0-2.9-0.1-4.7-0.2
		s-3.6-0.3-5.3-0.7V81.8c1.7-0.3,3.6-0.5,5.4-0.7c1.9-0.1,3.5-0.2,4.9-0.2c2.9,0,5.5,0.3,7.8,1c2.3,0.6,4.3,1.7,6,3
		c1.7,1.4,3,3.2,3.9,5.3S1013.1,95.1,1013.1,98.1z M991.3,108.8c0.4,0,0.8,0.1,1.2,0.1c0.5,0,1,0,1.7,0c3.8,0,6.6-1,8.4-2.9
		c1.8-1.9,2.7-4.5,2.7-7.9c0-3.5-0.9-6.2-2.6-8c-1.7-1.8-4.5-2.7-8.3-2.7c-0.5,0-1,0-1.6,0c-0.5,0-1.1,0.1-1.5,0.1V108.8z"/>
</g>
<g>
	<circle class="st1" cx="98.4" cy="97" r="93.8"/>
	<g>
		<g>
			<path class="st2" d="M69,84.8c0,0-1.4-6.1-6.1-10.8l10.6-9.1c0,0,7.7,3.1,15.1,2.9c0,0,6.6,0,12.7-2.9c0,0,9.2,3.1,14.4,3.2
				c0,0,9-0.2,13-3.2l10,9c0,0-5.2,7.4-5.1,11.4h-4.9c0,0-0.2-6.3,3.2-10.6l-4.3-3.6c0,0-6.8,2.7-13.2,2.7c0,0-9.7-0.1-13.5-3.1
				c0,0-6.2,2.9-12.7,2.6c0,0-9.8-0.2-13-2l-5,3.5c0,0,4.9,6.4,3.7,10.5h-4.8L69,84.8z"/>
			<path class="st3" d="M77.3,76.7c0,0,14.6,4.8,23.5-1.2c0,0,8.8,6.4,24.6,0.9c0,0-3.5,5.7-2.2,8.9H79.8
				C79.8,85.3,79.8,79.3,77.3,76.7z"/>
			<path class="st3" d="M85.4,120.1h31.3c0,0-8.5,7.9-15.5,9.5C101.1,129.6,88.8,125.9,85.4,120.1z"/>
			<path class="st2" d="M67.4,120.1h6.3c0,0,7,8.8,14.4,12.1c0,0,12.4,4.8,13,6.4c0,0,11.4-6.1,15.2-7.1c0,0,6.8-4.4,12-11.4h6.9
				c0,0-8.9,12.2-16.9,15.7c0,0-10.5,4.4-16.5,9.9c0,0-5-4.9-17.8-9.6C84.1,136.2,70.4,126.5,67.4,120.1z"/>
			<polygon class="st3" points="101.3,130.5 102.1,132.1 103.9,132.4 102.6,133.6 102.9,135.4 101.3,134.5 99.7,135.4 100,133.6 
				98.7,132.4 100.5,132.1 			"/>
			<polygon class="st2" points="67.4,89.4 71.5,89.4 73.4,106.7 76.4,89.4 79.4,89.4 82.1,107.1 84.6,89.4 88.4,89.4 84.5,118.2 
				81.2,118.2 77.9,101.1 75.4,118.2 71.4,118.2 			"/>
			<polygon class="st3" points="102.6,89.4 92.7,89.4 91.2,90.9 91.2,99.5 100.1,108.4 100,114.6 95.6,114.6 95.4,108.4 91.6,108.4 
				91.6,116.9 92.9,118.2 102.6,118.2 104.4,116.8 104.4,107.2 95.4,98.4 95.2,92.9 100.4,93 100.3,98.4 104.4,98.4 104.4,91.1 			
				"/>
			<polygon class="st3" points="119.5,89.9 109.4,89.9 107.7,91.4 107.7,116.8 109.4,118.2 119.5,118.2 121.9,116.8 121.9,109.3 
				117.8,109.1 117.7,114.7 112.1,114.8 111.7,93.4 117.2,93.4 117.2,99.3 121.2,99.4 121.4,91.2 			"/>
			<polygon class="st2" points="124.8,89.4 128.4,89.4 128.4,114.4 135.8,114.4 135.8,118.2 125.1,118.2 			"/>
		</g>
		<g>
			<path class="st4" d="M43,37.1l9.4,19.7H55l3.2-4.8l2.4,4.8H64l9.3-19.7c0,0-3.7-1.3-5.3,0.7l-5,11.8c0,0-1.1,0.6-2.3-3.2l4.2-9.7
				c0,0-4.5-1-5.7,1.6l-4.9,11.2l-6.2-13C48.1,36.5,41.9,34.9,43,37.1z"/>
			<g>
				<path class="st4" d="M79,36.4l-8.9,20.3h4.5l2.7-4.1l7.2-0.2l2.8,4.3h4.5l-8.8-20C83,36.8,81.6,34.9,79,36.4z"/>
				<polygon points="80.5,43.4 78.8,48.2 82.8,48.2 				"/>
			</g>
			<path class="st4" d="M89.2,38.8l8.3,18h4.1l8.6-19.2c0,0-2.6-2.2-4.7,0L100,49.5l-6.2-12.1c0,0-3.2-2.2-5.5-0.2L89.2,38.8z"/>
			<path class="st4" d="M112.7,37.3v19.5h3.9v-12c0,0,0.8-1.4,1.5-0.1l4.8,12.1h3.1l4.8-12.4c0,0,0.5-0.7,0.8,0v12.4h4.1v-20h-5.1
				c0,0-1.7,0-2.6,2.1L124.7,49c0,0-0.5,0.6-0.8,0.1l-4.2-10.6c0,0-0.4-1.7-2.4-1.7h-4.5L112.7,37.3L112.7,37.3z"/>
			<g>
				<path class="st4" d="M147.1,36.5l-8.9,20.3h4.5l2.7-4.1l7.2-0.2l2.8,4.3h4.5l-8.8-20C151.1,36.8,149.7,35,147.1,36.5z"/>
				<polygon points="148.6,43.5 146.9,48.2 150.9,48.2 				"/>
			</g>
		</g>
		<g>
			<path class="st5" d="M42.3,110.5c0,0.3,0.1,0.5,0.2,0.7c0.1,0.2,0.1,0.3,0.2,0.4c0.1,0.1,0.2,0.2,0.3,0.2s0.2,0,0.4,0
				c0.3,0,0.5-0.2,0.6-0.5s0.3-0.8,0.4-1.4c0.1-0.3,0.1-0.6,0.2-0.9c0.1-0.3,0.2-0.6,0.4-0.8c0.2-0.2,0.4-0.5,0.6-0.6
				c0.3-0.2,0.6-0.3,1-0.3c0.4-0.1,0.8,0,1.1,0.1s0.6,0.3,0.9,0.5c0.3,0.2,0.5,0.5,0.6,0.9c0.2,0.4,0.3,0.8,0.4,1.3
				c0.1,0.6,0.1,1.1,0,1.5s-0.2,0.8-0.3,1.1l-1.6-0.3c0.1-0.3,0.2-0.5,0.2-0.8c0.1-0.3,0.1-0.7,0-1.1c-0.1-0.5-0.2-0.8-0.3-1
				c-0.2-0.2-0.4-0.3-0.6-0.2c-0.2,0-0.3,0.1-0.4,0.2c-0.1,0.1-0.2,0.2-0.2,0.4c-0.1,0.1-0.1,0.3-0.2,0.5c0,0.2-0.1,0.4-0.1,0.6
				c-0.1,0.5-0.2,0.9-0.3,1.2c-0.1,0.3-0.3,0.6-0.4,0.9c-0.2,0.2-0.4,0.4-0.7,0.6c-0.3,0.1-0.6,0.2-1,0.3c-0.8,0.1-1.4-0.1-1.9-0.6
				s-0.8-1.3-1-2.4c-0.1-0.4-0.1-0.7-0.1-1s0-0.6,0.1-0.8c0-0.2,0.1-0.4,0.1-0.6c0.1-0.2,0.1-0.3,0.1-0.4l1.6,0.3
				c-0.1,0.3-0.2,0.6-0.2,1C42.2,109.5,42.2,109.9,42.3,110.5z"/>
			<path class="st5" d="M41.7,116.1l8.2-2.2l1.5,5.6l-1.6,0.4l-1-3.7l-1.6,0.4l0.9,3.3l-1.5,0.4l-0.9-3.3l-2,0.5l1.1,4l-1.6,0.4
				L41.7,116.1z"/>
			<path class="st5" d="M45.4,127.6c-0.5-1.3-0.6-2.4-0.2-3.4c0.4-1,1.3-1.7,2.6-2.3c0.6-0.3,1.3-0.4,1.9-0.4c0.6,0,1.1,0.1,1.6,0.3
				c0.5,0.2,0.9,0.5,1.3,0.9s0.7,0.9,0.9,1.5c0.1,0.3,0.2,0.6,0.3,0.9s0.1,0.6,0.1,0.8c0,0.2,0,0.4,0,0.6s0,0.3,0,0.4l-1.6,0.1
				c0-0.3,0-0.6,0-1s-0.2-0.7-0.3-1.2c-0.1-0.3-0.3-0.5-0.5-0.7s-0.4-0.4-0.7-0.5s-0.6-0.2-1-0.2s-0.8,0.1-1.2,0.3
				c-0.4,0.2-0.7,0.3-1,0.5s-0.5,0.5-0.6,0.7c-0.2,0.3-0.2,0.6-0.2,0.9s0.1,0.7,0.2,1.1c0.1,0.3,0.2,0.5,0.3,0.7s0.2,0.4,0.3,0.5
				s0.2,0.3,0.3,0.4c0.1,0.1,0.2,0.2,0.3,0.3l-1.2,1.1c-0.3-0.2-0.5-0.5-0.9-0.9C45.9,128.7,45.6,128.2,45.4,127.6z"/>
			<path class="st5" d="M49.1,134.8c-0.3-0.5-0.5-1-0.6-1.5s-0.1-0.9,0-1.3s0.3-0.8,0.6-1.1s0.6-0.6,1.1-0.9l4.5-2.7l1,1.6l-4.4,2.7
				c-0.3,0.2-0.5,0.4-0.7,0.6c-0.2,0.2-0.3,0.4-0.3,0.6s-0.1,0.4,0,0.6c0,0.2,0.1,0.4,0.2,0.6c0.2,0.4,0.6,0.7,1,0.7
				c0.4,0.1,0.9,0,1.5-0.4l4.4-2.7l1,1.6l-4.5,2.7c-0.4,0.3-0.9,0.4-1.3,0.5c-0.4,0.1-0.8,0.1-1.3,0c-0.4-0.1-0.8-0.3-1.2-0.6
				C49.8,135.7,49.5,135.3,49.1,134.8z"/>
			<path class="st5" d="M60.9,136.3c0.8,1,1.3,1.9,1.3,2.7c0.1,0.8-0.2,1.5-1,2.1c-0.5,0.4-0.9,0.6-1.4,0.6s-0.9-0.1-1.4-0.4
				c-0.1,0.3-0.1,0.6-0.2,0.9c-0.1,0.3-0.2,0.6-0.3,1c-0.1,0.3-0.2,0.7-0.4,1c-0.1,0.3-0.3,0.7-0.4,1l-1.4-1.7
				c0.1-0.3,0.2-0.6,0.4-0.9c0.1-0.3,0.2-0.6,0.3-0.9c0.1-0.3,0.2-0.6,0.3-0.9c0.1-0.3,0.1-0.5,0.2-0.8l-0.6-0.7l-2.4,2l-1.2-1.5
				l6.5-5.3c0.3,0.3,0.6,0.6,1,0.9C60.4,135.7,60.7,136,60.9,136.3z M59.7,137.4c-0.1-0.1-0.2-0.2-0.2-0.3c-0.1-0.1-0.1-0.2-0.2-0.2
				l-1.8,1.5l0.3,0.4c0.5,0.6,0.9,0.9,1.2,1s0.7,0.1,1-0.2s0.5-0.6,0.4-0.9C60.3,138.3,60.1,137.9,59.7,137.4z"/>
			<path class="st5" d="M64.3,140.3l1.4,1.3l-6,6.1l-1.4-1.3L64.3,140.3z"/>
			<path class="st5" d="M71.8,146.8l-1,1.3l-2-1.6l-4.3,5.4l-1.5-1.2l4.3-5.4l-2-1.6l1-1.3L71.8,146.8z"/>
			<path class="st5" d="M73.7,152c0.6-0.3,1.2-0.7,1.7-1c0.6-0.3,1.1-0.7,1.6-1.1l1.8,1.1c-0.9,0.6-1.7,1.1-2.6,1.6s-1.8,1-2.7,1.4
				l-1.7,2.8l-1.6-1l1.7-2.8c0-1,0-2.1,0-3.1s0.1-2,0.1-3l1.9,1.1c-0.1,0.6-0.1,1.3-0.2,1.9C73.7,150.7,73.7,151.4,73.7,152z"/>
			<path class="st5" d="M82.6,161.9c-1.3-0.5-2.2-1.2-2.6-2.2s-0.4-2.1,0.1-3.5c0.2-0.7,0.6-1.2,1-1.7c0.4-0.4,0.8-0.8,1.3-1
				s1-0.3,1.6-0.3s1.1,0.1,1.7,0.3c0.3,0.1,0.6,0.3,0.9,0.4c0.3,0.2,0.5,0.3,0.7,0.4c0.2,0.1,0.3,0.3,0.4,0.4s0.2,0.2,0.2,0.3
				l-1,1.3c-0.2-0.2-0.4-0.4-0.7-0.6s-0.6-0.4-1.1-0.5c-0.3-0.1-0.6-0.2-0.9-0.2s-0.6,0.1-0.9,0.2c-0.3,0.1-0.5,0.3-0.8,0.6
				c-0.2,0.3-0.4,0.7-0.6,1.1c-0.1,0.4-0.2,0.7-0.3,1.1c0,0.3,0,0.7,0.1,1s0.3,0.6,0.5,0.8s0.6,0.4,1,0.6c0.3,0.1,0.5,0.2,0.7,0.2
				s0.4,0.1,0.6,0.1s0.3,0,0.5,0c0.1,0,0.3,0,0.4,0v1.6c-0.3,0.1-0.7,0.1-1.2,0C83.8,162.2,83.2,162.1,82.6,161.9z"/>
			<path class="st5" d="M95.8,160.6c-0.1,0.7-0.4,1.3-0.7,1.8s-0.7,0.9-1.1,1.2s-0.9,0.5-1.5,0.6c-0.5,0.1-1.1,0.1-1.7-0.1
				c-0.6-0.1-1.1-0.3-1.6-0.6s-0.9-0.7-1.2-1.1c-0.3-0.4-0.5-1-0.6-1.5c-0.1-0.6-0.1-1.2,0.1-2c0.1-0.7,0.4-1.3,0.7-1.8
				c0.3-0.5,0.7-0.9,1.2-1.2s1-0.5,1.5-0.6s1.1-0.1,1.6,0c0.6,0.1,1.1,0.3,1.6,0.6s0.9,0.7,1.2,1.1c0.3,0.4,0.5,1,0.6,1.5
				C96,159.2,95.9,159.9,95.8,160.6z M89.4,159.3c-0.1,0.4-0.1,0.8-0.1,1.1c0,0.4,0.1,0.7,0.3,0.9c0.1,0.3,0.3,0.5,0.6,0.7
				c0.2,0.2,0.5,0.3,0.9,0.4c0.3,0.1,0.7,0.1,1,0s0.6-0.2,0.8-0.4c0.2-0.2,0.4-0.5,0.6-0.8s0.3-0.7,0.4-1.1c0.1-0.4,0.1-0.8,0.1-1.1
				c0-0.4-0.1-0.7-0.3-0.9c-0.1-0.3-0.3-0.5-0.6-0.7c-0.3-0.2-0.5-0.3-0.9-0.4c-0.4-0.1-0.7-0.1-1,0s-0.6,0.2-0.8,0.4
				c-0.2,0.2-0.4,0.5-0.6,0.8C89.6,158.5,89.5,158.9,89.4,159.3z"/>
			<path class="st5" d="M99.9,156.6c0.1,0.3,0.3,0.6,0.5,1s0.4,0.8,0.6,1.3s0.4,0.9,0.6,1.4s0.4,0.9,0.5,1.4
				c0.2-0.4,0.4-0.9,0.6-1.3c0.2-0.5,0.4-0.9,0.7-1.4c0.2-0.5,0.4-0.9,0.6-1.3c0.2-0.4,0.4-0.7,0.5-1h1.7c0.1,0.6,0.1,1.2,0.2,1.9
				c0,0.7,0.1,1.4,0.1,2.2s0.1,1.5,0.1,2.3s0,1.5,0.1,2.2l-1.9-0.1c0-0.8,0-1.7,0-2.7s0-2-0.1-3c-0.2,0.3-0.3,0.7-0.5,1.1
				c-0.2,0.4-0.4,0.8-0.6,1.2s-0.4,0.8-0.5,1.2c-0.2,0.4-0.3,0.7-0.4,1h-1.3c-0.1-0.3-0.2-0.6-0.4-1s-0.3-0.8-0.5-1.2
				s-0.3-0.8-0.5-1.3c-0.2-0.4-0.3-0.8-0.5-1.2c-0.1,1-0.2,2-0.3,2.9c-0.1,1-0.1,1.9-0.2,2.7l-1.9-0.1c0.1-0.7,0.1-1.4,0.2-2.1
				c0.1-0.8,0.1-1.5,0.2-2.3s0.2-1.5,0.2-2.2c0.1-0.7,0.2-1.3,0.3-1.9L99.9,156.6z"/>
			<path class="st5" d="M110.6,156c1.3-0.2,2.3-0.1,3,0.2s1.2,1,1.3,2c0.1,1-0.1,1.8-0.7,2.3s-1.6,0.9-2.8,1.1l-0.6,0.1l0.4,2.8
				l-1.9,0.3l-1.2-8.3c0.4-0.1,0.8-0.3,1.3-0.4C109.9,156.2,110.3,156.1,110.6,156z M111,157.6c-0.1,0-0.3,0-0.4,0.1
				c-0.1,0-0.2,0.1-0.3,0.1l0.3,2.4l0.6-0.1c0.7-0.1,1.1-0.3,1.4-0.5s0.4-0.6,0.4-1.1c0-0.2-0.1-0.4-0.2-0.6
				c-0.1-0.1-0.2-0.2-0.4-0.3c-0.2-0.1-0.4-0.1-0.6-0.1S111.2,157.6,111,157.6z"/>
			<path class="st5" d="M122.5,162.2c-0.2-0.3-0.4-0.5-0.5-0.8c-0.2-0.3-0.4-0.5-0.6-0.8l-3.2,0.9c0,0.3,0,0.7-0.1,1
				c0,0.3,0,0.7,0,1l-1.9,0.5c0.1-1,0.1-1.9,0.2-2.7s0.1-1.6,0.2-2.3s0.2-1.4,0.3-2.1c0.1-0.7,0.2-1.3,0.3-2l1.8-0.5
				c0.4,0.5,0.9,1,1.3,1.5s0.9,1.1,1.3,1.7c0.5,0.6,0.9,1.2,1.4,1.9s1,1.4,1.6,2.2L122.5,162.2z M118.5,156.5c0,0.1,0,0.3,0,0.5
				s0,0.5-0.1,0.8c0,0.3-0.1,0.6-0.1,1s-0.1,0.7-0.1,1.1l2.3-0.7c-0.2-0.3-0.4-0.6-0.7-0.9c-0.2-0.3-0.4-0.6-0.6-0.8
				s-0.3-0.4-0.5-0.6S118.6,156.6,118.5,156.5z"/>
			<path class="st5" d="M131.4,158.5c-0.9-0.7-1.9-1.3-2.8-1.9c-1-0.6-2-1.1-3-1.6l2.3,5.1l-1.7,0.8l-3.6-7.7l1.4-0.7
				c0.4,0.1,0.8,0.3,1.2,0.5c0.5,0.2,0.9,0.5,1.4,0.7c0.5,0.3,1,0.5,1.5,0.8c0.5,0.3,1,0.6,1.4,0.9l-2.1-4.6l1.7-0.8l3.6,7.7
				L131.4,158.5z"/>
			<path class="st5" d="M135.1,150.6c0-0.7-0.1-1.3-0.1-2c-0.1-0.7-0.1-1.3-0.2-1.9l1.8-1.2c0.1,1,0.2,2,0.3,3s0.1,2,0.1,3l1.8,2.7
				l-1.6,1.1l-1.8-2.7c-0.9-0.4-1.9-0.9-2.8-1.3c-0.9-0.4-1.8-0.9-2.7-1.4l1.9-1.2c0.5,0.3,1.1,0.7,1.7,1
				C133.9,150,134.5,150.3,135.1,150.6z"/>
			<path class="st5" d="M147.9,144.3l1.1,1.2l-4.1,3.9l-5.9-6.2l1.4-1.3l4.7,5L147.9,144.3z"/>
			<path class="st5" d="M143.7,138.6l1.3-1.4l6.4,5.6l-1.3,1.4L143.7,138.6z"/>
			<path class="st5" d="M147.4,134.2c0.3,0,0.7,0.1,1.1,0.1c0.4,0.1,0.9,0.1,1.4,0.2c0.5,0.1,1,0.2,1.5,0.3s1,0.2,1.5,0.3
				c-0.3-0.4-0.5-0.8-0.8-1.2s-0.6-0.9-0.8-1.3c-0.3-0.4-0.5-0.8-0.7-1.2s-0.4-0.7-0.6-1l1-1.5c0.5,0.2,1.1,0.5,1.7,0.9
				c0.6,0.3,1.3,0.7,1.9,1.1c0.7,0.4,1.3,0.8,2,1.1c0.7,0.4,1.3,0.7,1.9,1.1l-1,1.6c-0.7-0.4-1.5-0.9-2.3-1.4s-1.7-1-2.6-1.5
				c0.2,0.3,0.4,0.7,0.7,1c0.2,0.4,0.5,0.8,0.7,1.1c0.3,0.4,0.5,0.7,0.7,1.1c0.2,0.3,0.4,0.6,0.6,0.9l-0.7,1.1
				c-0.3-0.1-0.6-0.1-1-0.2s-0.8-0.2-1.3-0.2c-0.4-0.1-0.9-0.2-1.3-0.2c-0.4-0.1-0.9-0.2-1.2-0.2c0.8,0.6,1.6,1.2,2.4,1.8
				c0.8,0.6,1.5,1.1,2.2,1.6l-1,1.6c-0.5-0.4-1.1-0.8-1.7-1.3c-0.6-0.5-1.2-0.9-1.8-1.4s-1.2-0.9-1.7-1.4c-0.5-0.4-1-0.9-1.5-1.2
				L147.4,134.2z"/>
			<path class="st5" d="M151.7,127.1l0.9-1.7l7.6,3.8l-0.9,1.7L151.7,127.1z"/>
			<path class="st5" d="M155.5,118l1.5,0.6l-0.9,2.4l6.4,2.4l-0.7,1.8l-6.4-2.4l-0.9,2.4l-1.5-0.6L155.5,118z"/>
			<path class="st5" d="M164,119.2l-8.3-1.9l1.3-5.6l1.6,0.4l-0.9,3.7l1.6,0.4l0.8-3.3l1.5,0.4l-0.8,3.3l2,0.5l0.9-4l1.6,0.4
				L164,119.2z"/>
			<path class="st5" d="M162.1,103.3c0.7,0.1,1.4,0.2,1.9,0.5s1,0.6,1.3,1.1s0.5,1,0.7,1.6c0.1,0.6,0.2,1.3,0.1,2.1
				c0,0.3-0.1,0.7-0.1,1.2c-0.1,0.5-0.2,0.9-0.3,1.3l-8.3-0.7c0-0.4-0.1-0.9,0-1.4c0-0.5,0-0.9,0.1-1.2c0.1-0.7,0.2-1.4,0.4-2
				s0.5-1.1,0.9-1.5s0.9-0.7,1.4-0.9C160.7,103.3,161.3,103.3,162.1,103.3z M164.3,109.1c0-0.1,0-0.2,0-0.3c0-0.1,0-0.3,0-0.4
				c0.1-1-0.1-1.7-0.5-2.2s-1.1-0.8-1.9-0.9c-0.9-0.1-1.6,0.1-2.1,0.5s-0.8,1.1-0.9,2c0,0.1,0,0.3,0,0.4s0,0.3,0,0.4L164.3,109.1z"
				/>
		</g>
	</g>
</g>
<g>
	<path class="st4" d="M431.4,149l-6.3-9.5c-0.9-1.3-1.7-2.2-2.5-2.9c-0.8-0.7-1.7-1-2.8-1.1v-0.7h3.5c1.3,0,2.3,0.4,3.2,1.1
		c0.9,0.7,1.7,1.7,2.5,2.9l5.2,8.1l7.6-12.1h1.8l-8.5,13.9V159h-3.7V149z"/>
	<path class="st4" d="M446.1,158.2c-1.3-0.8-2.2-1.9-2.9-3.2s-1-2.9-1-4.6s0.3-3.2,1-4.6s1.6-2.4,2.9-3.2s2.7-1.2,4.4-1.2
		s3.2,0.4,4.4,1.2c1.3,0.8,2.2,1.9,2.9,3.2c0.7,1.4,1,2.9,1,4.6s-0.3,3.2-1,4.6c-0.7,1.4-1.6,2.4-2.9,3.2c-1.3,0.8-2.7,1.2-4.4,1.2
		S447.4,159,446.1,158.2z M453.8,155.7c0.8-1.4,1.2-3.2,1.2-5.4s-0.4-3.9-1.2-5.4c-0.8-1.4-1.9-2.1-3.2-2.1c-1.3,0-2.4,0.7-3.2,2.1
		c-0.8,1.4-1.2,3.2-1.2,5.4s0.4,3.9,1.2,5.4c0.8,1.4,1.9,2.1,3.2,2.1C451.9,157.9,452.9,157.2,453.8,155.7z"/>
	<path class="st4" d="M463.1,152.7v-6.5c0-1.3-0.2-2.2-0.5-2.8c-0.3-0.6-1-0.9-2.1-0.9h-0.4v-0.8h3.3c0.9,0,1.6,0.1,2,0.4
		s0.8,0.7,1,1.3c0.2,0.6,0.3,1.6,0.3,2.8v6.5c0,1.7,0.3,3,1,3.8c0.7,0.8,1.6,1.2,2.7,1.2c1.3,0,2.5-0.7,3.6-2.1v-13.9h3.7V159h-2.2
		l-1.3-1.5h-0.2c-0.5,0.5-1.2,1-2,1.3c-0.8,0.4-1.7,0.5-2.7,0.5C465.2,159.4,463.1,157.2,463.1,152.7z"/>
	<path class="st4" d="M493,145.9c-0.6-1.4-1.1-2.3-1.7-2.9c-0.5-0.6-1.2-0.9-2-0.9v-0.7c0.1,0,0.3,0,0.6,0c0.2,0,0.5,0,0.7,0
		c1.4,0,2.6,0.3,3.7,1s2,1.9,2.8,3.6l3.3,7.7l5.1-11.9h1.9l-7.6,17.7h-0.9L493,145.9z"/>
	<path class="st4" d="M510.9,158.1c-1.1-0.8-1.7-2.1-1.7-3.8c0-1.8,0.8-3.2,2.5-4c1.7-0.8,4-1.2,7-1.2h1c0-2.3-0.3-3.9-1-4.8
		c-0.6-0.9-1.6-1.3-2.8-1.3c-1.1,0-1.9,0.2-2.6,0.7c-0.7,0.5-1.1,1.3-1.4,2.5h-1.8c0-0.8,0-1.5,0.1-2c0.1-0.5,0.4-1,0.8-1.4
		c0.4-0.4,1.2-0.8,2.2-1c1-0.2,2.1-0.3,3.4-0.3c2.1,0,3.8,0.6,4.9,1.7c1.2,1.1,1.8,3.1,1.8,6v9.9h-2.2l-1.3-1.7h-0.2
		c-0.4,0.6-1.1,1-1.9,1.4s-1.9,0.6-3.1,0.6C513.3,159.4,512,159,510.9,158.1z M519.7,155.4v-4.9h-1c-1.8,0-3.2,0.3-4.2,1
		s-1.5,1.6-1.5,2.7c0,1.1,0.3,2,0.9,2.5c0.6,0.6,1.4,0.9,2.3,0.9C517.7,157.7,518.8,156.9,519.7,155.4z"/>
	<path class="st4" d="M528.4,139.3c0-1.3-0.2-2.2-0.5-2.8c-0.3-0.6-1-0.9-2.1-0.9h-0.7v-0.8h3.6c0.9,0,1.6,0.1,2,0.4
		c0.5,0.2,0.8,0.7,1,1.3c0.2,0.6,0.3,1.6,0.3,2.8V159h-3.7V139.3z"/>
	<path class="st4" d="M537.4,152.7v-6.5c0-1.3-0.2-2.2-0.5-2.8c-0.3-0.6-1-0.9-2.1-0.9h-0.4v-0.8h3.3c0.9,0,1.6,0.1,2,0.4
		c0.5,0.2,0.8,0.7,1,1.3s0.3,1.6,0.3,2.8v6.5c0,1.7,0.3,3,1,3.8c0.7,0.8,1.6,1.2,2.7,1.2c1.3,0,2.5-0.7,3.6-2.1v-13.9h3.7V159H550
		l-1.3-1.5h-0.2c-0.5,0.5-1.2,1-2,1.3c-0.8,0.4-1.7,0.5-2.7,0.5C539.5,159.4,537.4,157.2,537.4,152.7z"/>
	<path class="st4" d="M559.9,158.2c-1.2-0.8-2.1-1.9-2.7-3.2c-0.6-1.4-0.9-2.9-0.9-4.6c0-1.7,0.3-3.3,0.9-4.7
		c0.6-1.4,1.5-2.4,2.6-3.2s2.5-1.2,4-1.2c2.4,0,4.3,0.7,5.6,2.1c1.3,1.4,1.9,3.3,1.9,5.8l-0.1,1.7h-11.1c0,2.1,0.4,3.8,1.3,5.1
		c0.8,1.2,2,1.9,3.5,1.9c1.2,0,2.1-0.3,2.9-0.8s1.6-1.2,2.2-2.2l0.8,0.6c-0.8,1.3-1.7,2.2-2.8,2.9c-1.1,0.7-2.4,1-3.9,1
		C562.6,159.4,561.1,159,559.9,158.2z M567.5,149.4c0-4.4-1.2-6.5-3.7-6.5c-1.1,0-1.9,0.6-2.6,1.8c-0.7,1.2-1,2.8-1,4.8H567.5z"/>
	<path class="st4" d="M585.2,146.2c0-1.3-0.2-2.2-0.5-2.8c-0.3-0.6-1-0.9-2.1-0.9H582v-0.8h3.6c0.9,0,1.6,0.1,2,0.4
		c0.5,0.2,0.8,0.7,1,1.3s0.3,1.6,0.3,2.8V159h-3.7V146.2z M585.2,138.8c-0.4-0.5-0.6-1.1-0.6-1.8c0-0.5,0.2-0.9,0.5-1.2
		s0.8-0.5,1.3-0.5c0.7,0,1.2,0.2,1.6,0.7c0.4,0.5,0.6,1.1,0.6,1.7c0,0.5-0.2,1-0.5,1.3c-0.3,0.3-0.7,0.5-1.3,0.5
		C586.2,139.6,585.7,139.3,585.2,138.8z"/>
	<path class="st4" d="M595.8,158.1c-0.8-0.8-1.3-2.1-1.3-3.7v-11.2h-2.5v-1.5h2.5v-3.3l1.8-2.2h1.9v5.5h4.3v1.5h-4.3v11.3
		c0,1.2,0.2,2,0.6,2.6c0.4,0.6,1,0.8,1.8,0.8c0.6,0,1.1-0.1,1.5-0.2s0.8-0.3,1.3-0.6l0.4,0.8c-1.2,1-2.8,1.5-4.6,1.5
		C597.8,159.4,596.6,159,595.8,158.1z"/>
	<path class="st4" d="M612.1,149.9c0.4-0.9,1.1-1.9,1.9-3c0.8-1.1,1.4-2,1.8-2.9c0.4-0.8,0.6-1.9,0.6-3.1c0-1.8-0.4-3.2-1.3-4.1
		c-0.9-0.9-1.9-1.4-3.3-1.4c-1.5,0-2.8,0.6-3.9,1.7c-1.1,1.1-1.8,2.7-2.2,4.8H605c0-1.3,0-2.4,0.1-3.1c0.1-0.7,0.4-1.4,0.8-1.9
		c0.7-0.8,1.7-1.5,3-2.1c1.3-0.6,2.7-0.8,4.1-0.8c2,0,3.8,0.5,5.3,1.6c1.5,1.1,2.2,2.9,2.2,5.4c0,1-0.2,1.9-0.6,2.7
		c-0.4,0.8-0.8,1.5-1.3,2.1c-0.5,0.6-1.2,1.3-2.1,2.1c-1.1,1-2,1.9-2.5,2.7s-0.9,1.6-0.9,2.7h-1.7
		C611.5,151.9,611.7,150.8,612.1,149.9z M610.8,158.9c-0.4-0.4-0.6-0.9-0.6-1.5s0.2-1.1,0.6-1.5c0.4-0.4,0.9-0.6,1.5-0.6
		c0.6,0,1.1,0.2,1.5,0.6c0.4,0.4,0.6,0.9,0.6,1.5c0,0.6-0.2,1-0.6,1.5c-0.4,0.4-0.9,0.6-1.5,0.6
		C611.7,159.5,611.2,159.3,610.8,158.9z"/>
	<path class="st4" d="M633.6,139c-0.5-1.4-1.1-2.4-1.6-2.9c-0.6-0.5-1.3-0.9-2.4-1v-0.7l1.4-0.1c1.4,0,2.7,0.3,3.8,0.9
		c1.1,0.6,2,1.9,2.7,3.8l4.9,13.8l3.8-11.1l-1-2.7c-0.5-1.4-1.1-2.4-1.7-2.9c-0.6-0.5-1.3-0.9-2.4-1v-0.7c0.1,0,0.3,0,0.6,0
		c0.2,0,0.5,0,0.7,0c1.4,0,2.7,0.3,3.8,0.9c1.1,0.6,2,1.9,2.7,3.8l5,14l6.3-18.3h1.7l-8.5,24.6h-0.9l-5.5-15.2l-5.2,15.2h-1
		L633.6,139z"/>
	<path class="st4" d="M666,158.2c-1.2-0.8-2.1-1.9-2.7-3.2c-0.6-1.4-0.9-2.9-0.9-4.6c0-1.7,0.3-3.3,0.9-4.7c0.6-1.4,1.5-2.4,2.6-3.2
		s2.5-1.2,4-1.2c2.4,0,4.3,0.7,5.6,2.1c1.3,1.4,1.9,3.3,1.9,5.8l-0.1,1.7h-11.1c0,2.1,0.4,3.8,1.3,5.1c0.8,1.2,2,1.9,3.5,1.9
		c1.2,0,2.1-0.3,2.9-0.8s1.6-1.2,2.2-2.2l0.8,0.6c-0.8,1.3-1.7,2.2-2.8,2.9c-1.1,0.7-2.4,1-3.9,1C668.7,159.4,667.2,159,666,158.2z
		 M673.6,149.4c0-4.4-1.2-6.5-3.7-6.5c-1.1,0-1.9,0.6-2.6,1.8c-0.7,1.2-1,2.8-1,4.8H673.6z"/>
	<path class="st4" d="M690.8,157.9c-0.4-0.4-0.6-0.9-0.7-1.5c-0.1-0.6-0.1-1.4-0.1-2.5h0.9c0.2,1.2,0.7,2.2,1.6,2.9
		c0.8,0.7,2,1,3.5,1c1.3,0,2.3-0.2,3-0.7c0.6-0.5,1-1.1,1-1.9c0-0.7-0.3-1.3-0.8-1.8c-0.5-0.5-1.4-1-2.5-1.4l-2.1-0.9
		c-1.5-0.6-2.6-1.3-3.4-2.1s-1.1-1.8-1.1-2.9c0-1.5,0.6-2.7,1.7-3.5c1.2-0.8,2.7-1.3,4.6-1.3c2.7,0,4.6,0.5,5.6,1.5
		c0.4,0.4,0.7,0.9,0.8,1.5c0.1,0.6,0.1,1.4,0.1,2.6h-0.9c-0.2-1.3-0.7-2.2-1.6-2.9c-0.8-0.7-1.9-1-3.4-1c-1.1,0-2,0.2-2.6,0.7
		c-0.6,0.5-0.9,1.1-0.9,1.9c0,1.2,0.9,2.2,2.8,3l2.2,0.9c1.7,0.7,2.9,1.5,3.7,2.2s1.2,1.8,1.2,3c0,1.5-0.6,2.7-1.9,3.5
		c-1.3,0.8-2.9,1.3-4.9,1.3C693.8,159.4,691.9,158.9,690.8,157.9z"/>
	<path class="st4" d="M710,158.2c-1.2-0.8-2.1-1.9-2.7-3.2c-0.6-1.4-0.9-2.9-0.9-4.6c0-1.7,0.3-3.3,0.9-4.7c0.6-1.4,1.5-2.4,2.6-3.2
		s2.5-1.2,4-1.2c2.4,0,4.3,0.7,5.6,2.1c1.3,1.4,1.9,3.3,1.9,5.8l-0.1,1.7h-11.1c0,2.1,0.4,3.8,1.3,5.1c0.8,1.2,2,1.9,3.5,1.9
		c1.2,0,2.1-0.3,2.9-0.8s1.6-1.2,2.2-2.2l0.8,0.6c-0.8,1.3-1.7,2.2-2.8,2.9c-1.1,0.7-2.4,1-3.9,1C712.6,159.4,711.2,159,710,158.2z
		 M717.6,149.4c0-4.4-1.2-6.5-3.7-6.5c-1.1,0-1.9,0.6-2.6,1.8c-0.7,1.2-1,2.8-1,4.8H717.6z"/>
	<path class="st4" d="M728.2,158.2c-1.3-0.8-2.2-1.9-2.8-3.2c-0.6-1.4-0.9-2.9-0.9-4.6s0.3-3.2,0.9-4.6c0.6-1.4,1.5-2.4,2.8-3.2
		s2.8-1.2,4.6-1.2c2.7,0,4.5,0.4,5.4,1.3c0.4,0.4,0.7,0.9,0.8,1.6c0.1,0.6,0.1,1.7,0.1,3.3h-0.8c-0.1-1.5-0.6-2.7-1.4-3.5
		c-0.9-0.8-2-1.2-3.4-1.2c-1.7,0-2.9,0.7-3.8,2c-0.9,1.4-1.3,3.2-1.3,5.5c0,2.3,0.4,4.1,1.3,5.5c0.9,1.3,2.1,2,3.9,2
		c1.2,0,2.2-0.2,3.1-0.7c0.8-0.5,1.6-1.2,2.2-2.2l0.8,0.6c-0.8,1.3-1.7,2.2-2.8,2.9c-1.1,0.7-2.5,1-4,1
		C731,159.4,729.5,159,728.2,158.2z"/>
	<path class="st4" d="M743.5,152.7v-6.5c0-1.3-0.2-2.2-0.5-2.8c-0.3-0.6-1-0.9-2.1-0.9h-0.4v-0.8h3.3c0.9,0,1.6,0.1,2,0.4
		c0.5,0.2,0.8,0.7,1,1.3s0.3,1.6,0.3,2.8v6.5c0,1.7,0.3,3,1,3.8c0.7,0.8,1.6,1.2,2.7,1.2c1.3,0,2.5-0.7,3.6-2.1v-13.9h3.7V159h-2.2
		l-1.3-1.5h-0.2c-0.5,0.5-1.2,1-2,1.3c-0.8,0.4-1.7,0.5-2.7,0.5C745.6,159.4,743.5,157.2,743.5,152.7z"/>
	<path class="st4" d="M763.7,146.2c0-1.3-0.2-2.2-0.5-2.8c-0.3-0.6-1-0.9-2.1-0.9h-0.4v-0.8h3.1c0.9,0,1.6,0.1,2.1,0.4
		c0.5,0.2,0.8,0.7,1,1.2c0.5-0.5,1.2-1,2-1.4c0.8-0.4,1.7-0.6,2.6-0.6c1,0,1.8,0.2,2.3,0.6c0.3,0.2,0.5,0.5,0.7,0.7
		c0.2,0.2,0.4,0.6,0.6,1l-1.6,1.2c-0.3-0.4-0.7-0.7-1.2-0.9c-0.5-0.2-1.1-0.3-1.7-0.3c-0.7,0-1.4,0.1-2,0.4
		c-0.6,0.3-1.1,0.7-1.5,1.2c0,0.3,0,0.7,0,1.3V159h-3.7V146.2z"/>
	<path class="st4" d="M780.5,158.2c-1.2-0.8-2.1-1.9-2.7-3.2c-0.6-1.4-0.9-2.9-0.9-4.6c0-1.7,0.3-3.3,0.9-4.7
		c0.6-1.4,1.5-2.4,2.6-3.2s2.5-1.2,4-1.2c2.4,0,4.3,0.7,5.6,2.1c1.3,1.4,1.9,3.3,1.9,5.8l-0.1,1.7h-11.1c0,2.1,0.4,3.8,1.3,5.1
		c0.8,1.2,2,1.9,3.5,1.9c1.2,0,2.1-0.3,2.9-0.8s1.6-1.2,2.2-2.2l0.8,0.6c-0.8,1.3-1.7,2.2-2.8,2.9c-1.1,0.7-2.4,1-3.9,1
		C783.1,159.4,781.6,159,780.5,158.2z M788.1,149.4c0-4.4-1.2-6.5-3.7-6.5c-1.1,0-1.9,0.6-2.6,1.8c-0.7,1.2-1,2.8-1,4.8H788.1z"/>
	<path class="st4" d="M805.7,146.2c0-1.3-0.2-2.2-0.5-2.8c-0.3-0.6-1-0.9-2.1-0.9h-0.6v-0.8h3.6c0.9,0,1.6,0.1,2,0.4
		c0.5,0.2,0.8,0.7,1,1.3s0.3,1.6,0.3,2.8V159h-3.7V146.2z M805.8,138.8c-0.4-0.5-0.6-1.1-0.6-1.8c0-0.5,0.2-0.9,0.5-1.2
		s0.8-0.5,1.3-0.5c0.7,0,1.2,0.2,1.6,0.7c0.4,0.5,0.6,1.1,0.6,1.7c0,0.5-0.2,1-0.5,1.3c-0.3,0.3-0.7,0.5-1.3,0.5
		C806.7,139.6,806.2,139.3,805.8,138.8z"/>
	<path class="st4" d="M816.3,158.1c-0.8-0.8-1.3-2.1-1.3-3.7v-11.2h-2.5v-1.5h2.5v-3.3l1.8-2.2h1.9v5.5h4.3v1.5h-4.3v11.3
		c0,1.2,0.2,2,0.6,2.6c0.4,0.6,1,0.8,1.8,0.8c0.6,0,1.1-0.1,1.5-0.2s0.8-0.3,1.3-0.6l0.4,0.8c-1.2,1-2.8,1.5-4.6,1.5
		C818.3,159.4,817.1,159,816.3,158.1z"/>
</g>
</svg>
