<?xml version="1.0" encoding="utf-8"?>
<!-- Generator: Adobe Illustrator 22.0.0, SVG Export Plug-In . SVG Version: 6.00 Build 0)  -->
<svg version="1.1" id="Layer_1" xmlns="http://www.w3.org/2000/svg" xmlns:xlink="http://www.w3.org/1999/xlink" x="0px" y="0px"
	 viewBox="0 0 198.1 195.9" style="enable-background:new 0 0 198.1 195.9;" xml:space="preserve">
<style type="text/css">
	.st0{stroke:#FFFFFF;stroke-width:4;stroke-miterlimit:10;}
	.st1{fill:#DE9A13;}
	.st2{fill:#FFFFFF;}
	.st3{fill:#E19C12;}
	.st4{fill:#E69811;}
</style>
<g>
	<circle class="st0" cx="98.4" cy="97" r="93.8"/>
	<g>
		<g>
			<path class="st1" d="M69,84.8c0,0-1.4-6.1-6.1-10.8l10.6-9.1c0,0,7.7,3.1,15.1,2.9c0,0,6.6,0,12.7-2.9c0,0,9.2,3.1,14.4,3.2
				c0,0,9-0.2,13-3.2l10,9c0,0-5.2,7.4-5.1,11.4h-4.9c0,0-0.2-6.3,3.2-10.6l-4.3-3.6c0,0-6.8,2.7-13.2,2.7c0,0-9.7-0.1-13.5-3.1
				c0,0-6.2,2.9-12.7,2.6c0,0-9.8-0.2-13-2l-5,3.5c0,0,4.9,6.4,3.7,10.5h-4.8L69,84.8z"/>
			<path class="st2" d="M77.3,76.7c0,0,14.6,4.8,23.5-1.2c0,0,8.8,6.4,24.6,0.9c0,0-3.5,5.7-2.2,8.9H79.8
				C79.8,85.3,79.8,79.3,77.3,76.7z"/>
			<path class="st2" d="M85.4,120.1h31.3c0,0-8.5,7.9-15.5,9.5C101.1,129.6,88.8,125.9,85.4,120.1z"/>
			<path class="st1" d="M67.4,120.1h6.3c0,0,7,8.8,14.4,12.1c0,0,12.4,4.8,13,6.4c0,0,11.4-6.1,15.2-7.1c0,0,6.8-4.4,12-11.4h6.9
				c0,0-8.9,12.2-16.9,15.7c0,0-10.5,4.4-16.5,9.9c0,0-5-4.9-17.8-9.6C84.1,136.2,70.4,126.5,67.4,120.1z"/>
			<polygon class="st2" points="101.3,130.5 102.1,132.1 103.9,132.4 102.6,133.6 102.9,135.4 101.3,134.5 99.7,135.4 100,133.6 
				98.7,132.4 100.5,132.1 			"/>
			<polygon class="st1" points="67.4,89.4 71.5,89.4 73.4,106.7 76.4,89.4 79.4,89.4 82.1,107.1 84.6,89.4 88.4,89.4 84.5,118.2 
				81.2,118.2 77.9,101.1 75.4,118.2 71.4,118.2 			"/>
			<polygon class="st2" points="102.6,89.4 92.7,89.4 91.2,90.9 91.2,99.5 100.1,108.4 100,114.6 95.6,114.6 95.4,108.4 91.6,108.4 
				91.6,116.9 92.9,118.2 102.6,118.2 104.4,116.8 104.4,107.2 95.4,98.4 95.2,92.9 100.4,93 100.3,98.4 104.4,98.4 104.4,91.1 			
				"/>
			<polygon class="st2" points="119.5,89.9 109.4,89.9 107.7,91.4 107.7,116.8 109.4,118.2 119.5,118.2 121.9,116.8 121.9,109.3 
				117.8,109.1 117.7,114.7 112.1,114.8 111.7,93.4 117.2,93.4 117.2,99.3 121.2,99.4 121.4,91.2 			"/>
			<polygon class="st1" points="124.8,89.4 128.4,89.4 128.4,114.4 135.8,114.4 135.8,118.2 125.1,118.2 			"/>
		</g>
		<g>
			<path class="st3" d="M43,37.1l9.4,19.7H55l3.2-4.8l2.4,4.8H64l9.3-19.7c0,0-3.7-1.3-5.3,0.7l-5,11.8c0,0-1.1,0.6-2.3-3.2l4.2-9.7
				c0,0-4.5-1-5.7,1.6l-4.9,11.2l-6.2-13C48.1,36.5,41.9,34.9,43,37.1z"/>
			<g>
				<path class="st3" d="M79,36.4l-8.9,20.3h4.5l2.7-4.1l7.2-0.2l2.8,4.3h4.5l-8.8-20C83,36.8,81.6,34.9,79,36.4z"/>
				<polygon points="80.5,43.4 78.8,48.2 82.8,48.2 				"/>
			</g>
			<path class="st3" d="M89.2,38.8l8.3,18h4.1l8.6-19.2c0,0-2.6-2.2-4.7,0L100,49.5l-6.2-12.1c0,0-3.2-2.2-5.5-0.2L89.2,38.8z"/>
			<path class="st3" d="M112.7,37.3v19.5h3.9v-12c0,0,0.8-1.4,1.5-0.1l4.8,12.1h3.1l4.8-12.4c0,0,0.5-0.7,0.8,0v12.4h4.1v-20h-5.1
				c0,0-1.7,0-2.6,2.1L124.7,49c0,0-0.5,0.6-0.8,0.1l-4.2-10.6c0,0-0.4-1.7-2.4-1.7h-4.5L112.7,37.3L112.7,37.3z"/>
			<g>
				<path class="st3" d="M147.1,36.5l-8.9,20.3h4.5l2.7-4.1l7.2-0.2l2.8,4.3h4.5l-8.8-20C151.1,36.8,149.7,35,147.1,36.5z"/>
				<polygon points="148.6,43.5 146.9,48.2 150.9,48.2 				"/>
			</g>
		</g>
		<g>
			<path class="st4" d="M42.3,110.5c0,0.3,0.1,0.5,0.2,0.7c0.1,0.2,0.1,0.3,0.2,0.4c0.1,0.1,0.2,0.2,0.3,0.2s0.2,0,0.4,0
				c0.3,0,0.5-0.2,0.6-0.5s0.3-0.8,0.4-1.4c0.1-0.3,0.1-0.6,0.2-0.9c0.1-0.3,0.2-0.6,0.4-0.8c0.2-0.2,0.4-0.5,0.6-0.6
				c0.3-0.2,0.6-0.3,1-0.3c0.4-0.1,0.8,0,1.1,0.1s0.6,0.3,0.9,0.5c0.3,0.2,0.5,0.5,0.6,0.9c0.2,0.4,0.3,0.8,0.4,1.3
				c0.1,0.6,0.1,1.1,0,1.5s-0.2,0.8-0.3,1.1l-1.6-0.3c0.1-0.3,0.2-0.5,0.2-0.8c0.1-0.3,0.1-0.7,0-1.1c-0.1-0.5-0.2-0.8-0.3-1
				c-0.2-0.2-0.4-0.3-0.6-0.2c-0.2,0-0.3,0.1-0.4,0.2c-0.1,0.1-0.2,0.2-0.2,0.4c-0.1,0.1-0.1,0.3-0.2,0.5c0,0.2-0.1,0.4-0.1,0.6
				c-0.1,0.5-0.2,0.9-0.3,1.2c-0.1,0.3-0.3,0.6-0.4,0.9c-0.2,0.2-0.4,0.4-0.7,0.6c-0.3,0.1-0.6,0.2-1,0.3c-0.8,0.1-1.4-0.1-1.9-0.6
				s-0.8-1.3-1-2.4c-0.1-0.4-0.1-0.7-0.1-1s0-0.6,0.1-0.8c0-0.2,0.1-0.4,0.1-0.6c0.1-0.2,0.1-0.3,0.1-0.4l1.6,0.3
				c-0.1,0.3-0.2,0.6-0.2,1C42.2,109.5,42.2,109.9,42.3,110.5z"/>
			<path class="st4" d="M41.7,116.1l8.2-2.2l1.5,5.6l-1.6,0.4l-1-3.7l-1.6,0.4l0.9,3.3l-1.5,0.4l-0.9-3.3l-2,0.5l1.1,4l-1.6,0.4
				L41.7,116.1z"/>
			<path class="st4" d="M45.4,127.6c-0.5-1.3-0.6-2.4-0.2-3.4c0.4-1,1.3-1.7,2.6-2.3c0.6-0.3,1.3-0.4,1.9-0.4c0.6,0,1.1,0.1,1.6,0.3
				c0.5,0.2,0.9,0.5,1.3,0.9s0.7,0.9,0.9,1.5c0.1,0.3,0.2,0.6,0.3,0.9s0.1,0.6,0.1,0.8c0,0.2,0,0.4,0,0.6s0,0.3,0,0.4l-1.6,0.1
				c0-0.3,0-0.6,0-1s-0.2-0.7-0.3-1.2c-0.1-0.3-0.3-0.5-0.5-0.7s-0.4-0.4-0.7-0.5s-0.6-0.2-1-0.2s-0.8,0.1-1.2,0.3
				c-0.4,0.2-0.7,0.3-1,0.5s-0.5,0.5-0.6,0.7c-0.2,0.3-0.2,0.6-0.2,0.9s0.1,0.7,0.2,1.1c0.1,0.3,0.2,0.5,0.3,0.7s0.2,0.4,0.3,0.5
				s0.2,0.3,0.3,0.4c0.1,0.1,0.2,0.2,0.3,0.3l-1.2,1.1c-0.3-0.2-0.5-0.5-0.9-0.9C45.9,128.7,45.6,128.2,45.4,127.6z"/>
			<path class="st4" d="M49.1,134.8c-0.3-0.5-0.5-1-0.6-1.5s-0.1-0.9,0-1.3s0.3-0.8,0.6-1.1s0.6-0.6,1.1-0.9l4.5-2.7l1,1.6l-4.4,2.7
				c-0.3,0.2-0.5,0.4-0.7,0.6c-0.2,0.2-0.3,0.4-0.3,0.6s-0.1,0.4,0,0.6c0,0.2,0.1,0.4,0.2,0.6c0.2,0.4,0.6,0.7,1,0.7
				c0.4,0.1,0.9,0,1.5-0.4l4.4-2.7l1,1.6l-4.5,2.7c-0.4,0.3-0.9,0.4-1.3,0.5c-0.4,0.1-0.8,0.1-1.3,0c-0.4-0.1-0.8-0.3-1.2-0.6
				C49.8,135.7,49.5,135.3,49.1,134.8z"/>
			<path class="st4" d="M60.9,136.3c0.8,1,1.3,1.9,1.3,2.7c0.1,0.8-0.2,1.5-1,2.1c-0.5,0.4-0.9,0.6-1.4,0.6s-0.9-0.1-1.4-0.4
				c-0.1,0.3-0.1,0.6-0.2,0.9c-0.1,0.3-0.2,0.6-0.3,1c-0.1,0.3-0.2,0.7-0.4,1c-0.1,0.3-0.3,0.7-0.4,1l-1.4-1.7
				c0.1-0.3,0.2-0.6,0.4-0.9c0.1-0.3,0.2-0.6,0.3-0.9c0.1-0.3,0.2-0.6,0.3-0.9c0.1-0.3,0.1-0.5,0.2-0.8l-0.6-0.7l-2.4,2l-1.2-1.5
				l6.5-5.3c0.3,0.3,0.6,0.6,1,0.9C60.4,135.7,60.7,136,60.9,136.3z M59.7,137.4c-0.1-0.1-0.2-0.2-0.2-0.3c-0.1-0.1-0.1-0.2-0.2-0.2
				l-1.8,1.5l0.3,0.4c0.5,0.6,0.9,0.9,1.2,1s0.7,0.1,1-0.2s0.5-0.6,0.4-0.9C60.3,138.3,60.1,137.9,59.7,137.4z"/>
			<path class="st4" d="M64.3,140.3l1.4,1.3l-6,6.1l-1.4-1.3L64.3,140.3z"/>
			<path class="st4" d="M71.8,146.8l-1,1.3l-2-1.6l-4.3,5.4l-1.5-1.2l4.3-5.4l-2-1.6l1-1.3L71.8,146.8z"/>
			<path class="st4" d="M73.7,152c0.6-0.3,1.2-0.7,1.7-1c0.6-0.3,1.1-0.7,1.6-1.1l1.8,1.1c-0.9,0.6-1.7,1.1-2.6,1.6s-1.8,1-2.7,1.4
				l-1.7,2.8l-1.6-1l1.7-2.8c0-1,0-2.1,0-3.1s0.1-2,0.1-3l1.9,1.1c-0.1,0.6-0.1,1.3-0.2,1.9C73.7,150.7,73.7,151.4,73.7,152z"/>
			<path class="st4" d="M82.6,161.9c-1.3-0.5-2.2-1.2-2.6-2.2s-0.4-2.1,0.1-3.5c0.2-0.7,0.6-1.2,1-1.7c0.4-0.4,0.8-0.8,1.3-1
				s1-0.3,1.6-0.3s1.1,0.1,1.7,0.3c0.3,0.1,0.6,0.3,0.9,0.4c0.3,0.2,0.5,0.3,0.7,0.4c0.2,0.1,0.3,0.3,0.4,0.4s0.2,0.2,0.2,0.3
				l-1,1.3c-0.2-0.2-0.4-0.4-0.7-0.6s-0.6-0.4-1.1-0.5c-0.3-0.1-0.6-0.2-0.9-0.2s-0.6,0.1-0.9,0.2c-0.3,0.1-0.5,0.3-0.8,0.6
				c-0.2,0.3-0.4,0.7-0.6,1.1c-0.1,0.4-0.2,0.7-0.3,1.1c0,0.3,0,0.7,0.1,1s0.3,0.6,0.5,0.8s0.6,0.4,1,0.6c0.3,0.1,0.5,0.2,0.7,0.2
				s0.4,0.1,0.6,0.1s0.3,0,0.5,0c0.1,0,0.3,0,0.4,0v1.6c-0.3,0.1-0.7,0.1-1.2,0C83.8,162.2,83.2,162.1,82.6,161.9z"/>
			<path class="st4" d="M95.8,160.6c-0.1,0.7-0.4,1.3-0.7,1.8s-0.7,0.9-1.1,1.2s-0.9,0.5-1.5,0.6c-0.5,0.1-1.1,0.1-1.7-0.1
				c-0.6-0.1-1.1-0.3-1.6-0.6s-0.9-0.7-1.2-1.1c-0.3-0.4-0.5-1-0.6-1.5c-0.1-0.6-0.1-1.2,0.1-2c0.1-0.7,0.4-1.3,0.7-1.8
				c0.3-0.5,0.7-0.9,1.2-1.2s1-0.5,1.5-0.6s1.1-0.1,1.6,0c0.6,0.1,1.1,0.3,1.6,0.6s0.9,0.7,1.2,1.1c0.3,0.4,0.5,1,0.6,1.5
				C96,159.2,95.9,159.9,95.8,160.6z M89.4,159.3c-0.1,0.4-0.1,0.8-0.1,1.1c0,0.4,0.1,0.7,0.3,0.9c0.1,0.3,0.3,0.5,0.6,0.7
				c0.2,0.2,0.5,0.3,0.9,0.4c0.3,0.1,0.7,0.1,1,0s0.6-0.2,0.8-0.4c0.2-0.2,0.4-0.5,0.6-0.8s0.3-0.7,0.4-1.1c0.1-0.4,0.1-0.8,0.1-1.1
				c0-0.4-0.1-0.7-0.3-0.9c-0.1-0.3-0.3-0.5-0.6-0.7c-0.3-0.2-0.5-0.3-0.9-0.4c-0.4-0.1-0.7-0.1-1,0s-0.6,0.2-0.8,0.4
				c-0.2,0.2-0.4,0.5-0.6,0.8C89.6,158.5,89.5,158.9,89.4,159.3z"/>
			<path class="st4" d="M99.9,156.6c0.1,0.3,0.3,0.6,0.5,1s0.4,0.8,0.6,1.3s0.4,0.9,0.6,1.4s0.4,0.9,0.5,1.4
				c0.2-0.4,0.4-0.9,0.6-1.3c0.2-0.5,0.4-0.9,0.7-1.4c0.2-0.5,0.4-0.9,0.6-1.3c0.2-0.4,0.4-0.7,0.5-1h1.7c0.1,0.6,0.1,1.2,0.2,1.9
				c0,0.7,0.1,1.4,0.1,2.2s0.1,1.5,0.1,2.3s0,1.5,0.1,2.2l-1.9-0.1c0-0.8,0-1.7,0-2.7s0-2-0.1-3c-0.2,0.3-0.3,0.7-0.5,1.1
				c-0.2,0.4-0.4,0.8-0.6,1.2s-0.4,0.8-0.5,1.2c-0.2,0.4-0.3,0.7-0.4,1h-1.3c-0.1-0.3-0.2-0.6-0.4-1s-0.3-0.8-0.5-1.2
				s-0.3-0.8-0.5-1.3c-0.2-0.4-0.3-0.8-0.5-1.2c-0.1,1-0.2,2-0.3,2.9c-0.1,1-0.1,1.9-0.2,2.7l-1.9-0.1c0.1-0.7,0.1-1.4,0.2-2.1
				c0.1-0.8,0.1-1.5,0.2-2.3s0.2-1.5,0.2-2.2c0.1-0.7,0.2-1.3,0.3-1.9L99.9,156.6z"/>
			<path class="st4" d="M110.6,156c1.3-0.2,2.3-0.1,3,0.2s1.2,1,1.3,2c0.1,1-0.1,1.8-0.7,2.3s-1.6,0.9-2.8,1.1l-0.6,0.1l0.4,2.8
				l-1.9,0.3l-1.2-8.3c0.4-0.1,0.8-0.3,1.3-0.4C109.9,156.2,110.3,156.1,110.6,156z M111,157.6c-0.1,0-0.3,0-0.4,0.1
				c-0.1,0-0.2,0.1-0.3,0.1l0.3,2.4l0.6-0.1c0.7-0.1,1.1-0.3,1.4-0.5s0.4-0.6,0.4-1.1c0-0.2-0.1-0.4-0.2-0.6
				c-0.1-0.1-0.2-0.2-0.4-0.3c-0.2-0.1-0.4-0.1-0.6-0.1S111.2,157.6,111,157.6z"/>
			<path class="st4" d="M122.5,162.2c-0.2-0.3-0.4-0.5-0.5-0.8c-0.2-0.3-0.4-0.5-0.6-0.8l-3.2,0.9c0,0.3,0,0.7-0.1,1
				c0,0.3,0,0.7,0,1l-1.9,0.5c0.1-1,0.1-1.9,0.2-2.7s0.1-1.6,0.2-2.3s0.2-1.4,0.3-2.1c0.1-0.7,0.2-1.3,0.3-2l1.8-0.5
				c0.4,0.5,0.9,1,1.3,1.5s0.9,1.1,1.3,1.7c0.5,0.6,0.9,1.2,1.4,1.9s1,1.4,1.6,2.2L122.5,162.2z M118.5,156.5c0,0.1,0,0.3,0,0.5
				s0,0.5-0.1,0.8c0,0.3-0.1,0.6-0.1,1s-0.1,0.7-0.1,1.1l2.3-0.7c-0.2-0.3-0.4-0.6-0.7-0.9c-0.2-0.3-0.4-0.6-0.6-0.8
				s-0.3-0.4-0.5-0.6S118.6,156.6,118.5,156.5z"/>
			<path class="st4" d="M131.4,158.5c-0.9-0.7-1.9-1.3-2.8-1.9c-1-0.6-2-1.1-3-1.6l2.3,5.1l-1.7,0.8l-3.6-7.7l1.4-0.7
				c0.4,0.1,0.8,0.3,1.2,0.5c0.5,0.2,0.9,0.5,1.4,0.7c0.5,0.3,1,0.5,1.5,0.8c0.5,0.3,1,0.6,1.4,0.9l-2.1-4.6l1.7-0.8l3.6,7.7
				L131.4,158.5z"/>
			<path class="st4" d="M135.1,150.6c0-0.7-0.1-1.3-0.1-2c-0.1-0.7-0.1-1.3-0.2-1.9l1.8-1.2c0.1,1,0.2,2,0.3,3s0.1,2,0.1,3l1.8,2.7
				l-1.6,1.1l-1.8-2.7c-0.9-0.4-1.9-0.9-2.8-1.3c-0.9-0.4-1.8-0.9-2.7-1.4l1.9-1.2c0.5,0.3,1.1,0.7,1.7,1
				C133.9,150,134.5,150.3,135.1,150.6z"/>
			<path class="st4" d="M147.9,144.3l1.1,1.2l-4.1,3.9l-5.9-6.2l1.4-1.3l4.7,5L147.9,144.3z"/>
			<path class="st4" d="M143.7,138.6l1.3-1.4l6.4,5.6l-1.3,1.4L143.7,138.6z"/>
			<path class="st4" d="M147.4,134.2c0.3,0,0.7,0.1,1.1,0.1c0.4,0.1,0.9,0.1,1.4,0.2c0.5,0.1,1,0.2,1.5,0.3s1,0.2,1.5,0.3
				c-0.3-0.4-0.5-0.8-0.8-1.2s-0.6-0.9-0.8-1.3c-0.3-0.4-0.5-0.8-0.7-1.2s-0.4-0.7-0.6-1l1-1.5c0.5,0.2,1.1,0.5,1.7,0.9
				c0.6,0.3,1.3,0.7,1.9,1.1c0.7,0.4,1.3,0.8,2,1.1c0.7,0.4,1.3,0.7,1.9,1.1l-1,1.6c-0.7-0.4-1.5-0.9-2.3-1.4s-1.7-1-2.6-1.5
				c0.2,0.3,0.4,0.7,0.7,1c0.2,0.4,0.5,0.8,0.7,1.1c0.3,0.4,0.5,0.7,0.7,1.1c0.2,0.3,0.4,0.6,0.6,0.9l-0.7,1.1
				c-0.3-0.1-0.6-0.1-1-0.2s-0.8-0.2-1.3-0.2c-0.4-0.1-0.9-0.2-1.3-0.2c-0.4-0.1-0.9-0.2-1.2-0.2c0.8,0.6,1.6,1.2,2.4,1.8
				c0.8,0.6,1.5,1.1,2.2,1.6l-1,1.6c-0.5-0.4-1.1-0.8-1.7-1.3c-0.6-0.5-1.2-0.9-1.8-1.4s-1.2-0.9-1.7-1.4c-0.5-0.4-1-0.9-1.5-1.2
				L147.4,134.2z"/>
			<path class="st4" d="M151.7,127.1l0.9-1.7l7.6,3.8l-0.9,1.7L151.7,127.1z"/>
			<path class="st4" d="M155.5,118l1.5,0.6l-0.9,2.4l6.4,2.4l-0.7,1.8l-6.4-2.4l-0.9,2.4l-1.5-0.6L155.5,118z"/>
			<path class="st4" d="M164,119.2l-8.3-1.9l1.3-5.6l1.6,0.4l-0.9,3.7l1.6,0.4l0.8-3.3l1.5,0.4l-0.8,3.3l2,0.5l0.9-4l1.6,0.4
				L164,119.2z"/>
			<path class="st4" d="M162.1,103.3c0.7,0.1,1.4,0.2,1.9,0.5s1,0.6,1.3,1.1s0.5,1,0.7,1.6c0.1,0.6,0.2,1.3,0.1,2.1
				c0,0.3-0.1,0.7-0.1,1.2c-0.1,0.5-0.2,0.9-0.3,1.3l-8.3-0.7c0-0.4-0.1-0.9,0-1.4c0-0.5,0-0.9,0.1-1.2c0.1-0.7,0.2-1.4,0.4-2
				s0.5-1.1,0.9-1.5s0.9-0.7,1.4-0.9C160.7,103.3,161.3,103.3,162.1,103.3z M164.3,109.1c0-0.1,0-0.2,0-0.3c0-0.1,0-0.3,0-0.4
				c0.1-1-0.1-1.7-0.5-2.2s-1.1-0.8-1.9-0.9c-0.9-0.1-1.6,0.1-2.1,0.5s-0.8,1.1-0.9,2c0,0.1,0,0.3,0,0.4s0,0.3,0,0.4L164.3,109.1z"
				/>
		</g>
	</g>
</g>
</svg>
