<?xml version="1.0" encoding="utf-8"?>
<!-- Generator: Adobe Illustrator 22.0.0, SVG Export Plug-In . SVG Version: 6.00 Build 0)  -->
<svg version="1.1" id="Layer_1" xmlns="http://www.w3.org/2000/svg" xmlns:xlink="http://www.w3.org/1999/xlink" x="0px" y="0px"
	 viewBox="0 0 311.1 204" style="enable-background:new 0 0 311.1 204;" xml:space="preserve">
<style type="text/css">
	.st0{stroke:#FFFFFF;stroke-width:4;stroke-miterlimit:10;}
	.st1{fill:#DE9A13;}
	.st2{fill:#FFFFFF;}
	.st3{fill:#E19C12;}
	.st4{fill:#E69811;}
</style>
<g>
	<path d="M27.6,142.9c0.3,0.9,0.5,1.9,0.9,3s0.7,2.3,1,3.5s0.7,2.4,1.1,3.6c0.3,1.2,0.7,2.3,1.1,3.3c0.3-1.1,0.6-2.3,0.9-3.6
		c0.3-1.3,0.5-2.6,0.8-4c0.3-1.4,0.5-2.8,0.7-4.2c0.3-1.3,0.5-2.7,0.7-4H40c-0.7,3.8-1.6,7.6-2.6,11.5s-2.1,7.6-3.2,11h-4.6
		c-0.7-2.1-1.5-4.2-2.2-6.5c-0.7-2.3-1.4-4.6-2.1-6.9c-0.7,2.3-1.4,4.6-2.1,6.9c-0.7,2.3-1.4,4.5-2.2,6.5h-4.6
		c-1.1-3.5-2.2-7.2-3.2-11c-1-3.9-1.9-7.7-2.6-11.5h5.6c0.2,1.3,0.5,2.6,0.7,4c0.3,1.3,0.5,2.8,0.8,4.2c0.3,1.4,0.5,2.8,0.9,4
		c0.3,1.3,0.6,2.5,0.9,3.6c0.4-1.1,0.7-2.2,1.1-3.4c0.3-1.2,0.7-2.4,1.1-3.6c0.3-1.2,0.7-2.4,0.9-3.4c0.3-1.1,0.5-2.1,0.8-3
		L27.6,142.9L27.6,142.9z"/>
	<path d="M57.2,163c-0.3-0.8-0.5-1.6-0.8-2.4c-0.3-0.8-0.6-1.7-0.9-2.5h-8.8c-0.3,0.8-0.5,1.6-0.9,2.5c-0.3,0.9-0.5,1.6-0.8,2.4
		h-5.2c0.9-2.4,1.7-4.6,2.4-6.7s1.5-4,2.2-5.9c0.7-1.8,1.5-3.6,2.2-5.2c0.7-1.6,1.4-3.2,2.2-4.8h4.8c0.7,1.5,1.5,3.2,2.2,4.8
		c0.7,1.6,1.4,3.4,2.2,5.2c0.7,1.8,1.5,3.8,2.2,5.9c0.7,2.1,1.5,4.3,2.4,6.7H57.2z M51,145.6c-0.1,0.3-0.3,0.7-0.5,1.3
		c-0.2,0.5-0.5,1.2-0.7,2c-0.3,0.7-0.6,1.5-0.9,2.4c-0.3,0.9-0.7,1.8-1.1,2.8h6.5c-0.3-1-0.7-1.9-1-2.8s-0.6-1.7-0.9-2.4
		c-0.3-0.7-0.5-1.4-0.7-2C51.4,146.3,51.2,145.9,51,145.6z"/>
	<path d="M70.1,163c-0.9-1.9-1.8-3.8-2.6-5.9c-0.8-2.1-1.7-4-2.5-6.1c-0.8-2-1.5-3.9-2.2-5.7s-1.2-3.4-1.7-4.9h5.6
		c0.4,1.3,0.9,2.7,1.4,4.2c0.5,1.5,1.1,3,1.5,4.5c0.5,1.5,1.1,3,1.5,4.3c0.5,1.3,0.9,2.6,1.4,3.6c0.4-1,0.9-2.2,1.4-3.6
		c0.5-1.3,1-2.8,1.5-4.3c0.5-1.5,1.1-3,1.5-4.5c0.5-1.5,1-2.9,1.4-4.2h5.4c-0.5,1.4-1.1,3.1-1.7,4.9S80.8,149,80,151
		c-0.8,2-1.6,4-2.5,6.1c-0.9,2-1.7,4-2.6,5.9H70.1z"/>
	<path d="M92.6,140.5c0.4,0.7,0.9,1.6,1.3,2.6c0.5,1.1,1.1,2.2,1.6,3.4c0.5,1.2,1.1,2.5,1.6,3.8c0.5,1.3,1.1,2.5,1.5,3.6
		c0.5-1.1,1-2.4,1.5-3.6c0.5-1.3,1.1-2.6,1.6-3.8s1.1-2.4,1.6-3.4c0.5-1.1,0.9-2,1.3-2.6h4.6c0.2,1.5,0.4,3.2,0.6,5s0.3,3.8,0.5,5.8
		c0.1,2,0.3,4,0.4,6.1c0.1,2,0.2,3.9,0.3,5.7h-5c-0.1-2.2-0.1-4.6-0.3-7.1c-0.1-2.6-0.3-5.2-0.5-7.8c-0.4,0.9-0.8,2-1.3,3
		s-0.9,2.2-1.4,3.3c-0.5,1.1-0.9,2.2-1.3,3.2c-0.4,1-0.8,1.9-1.1,2.6h-3.6c-0.3-0.7-0.7-1.5-1.1-2.6c-0.4-1-0.9-2.1-1.3-3.2
		s-0.9-2.2-1.4-3.3s-0.9-2.1-1.3-3c-0.2,2.6-0.4,5.2-0.5,7.8c-0.1,2.6-0.2,5-0.3,7.1h-5c0.1-1.7,0.2-3.7,0.3-5.7
		c0.1-2,0.3-4,0.4-6.1c0.1-2,0.3-4,0.5-5.8c0.2-1.9,0.4-3.5,0.6-5H92.6z"/>
	<path d="M130.8,163c-0.3-0.8-0.5-1.6-0.8-2.4s-0.6-1.7-0.9-2.5h-8.8c-0.3,0.8-0.5,1.6-0.9,2.5c-0.3,0.9-0.5,1.6-0.8,2.4h-5.2
		c0.9-2.4,1.7-4.6,2.4-6.7c0.7-2.1,1.5-4,2.2-5.9c0.7-1.8,1.5-3.6,2.2-5.2c0.7-1.6,1.4-3.2,2.2-4.8h4.8c0.7,1.5,1.5,3.2,2.2,4.8
		s1.4,3.4,2.2,5.2c0.7,1.8,1.5,3.8,2.2,5.9c0.7,2.1,1.5,4.3,2.4,6.7H130.8z M124.8,145.6c-0.1,0.3-0.3,0.7-0.5,1.3
		c-0.2,0.5-0.5,1.2-0.7,2c-0.3,0.7-0.6,1.5-0.9,2.4c-0.3,0.9-0.7,1.8-1.1,2.8h6.5c-0.3-1-0.7-1.9-1-2.8c-0.3-0.9-0.6-1.7-0.9-2.4
		c-0.3-0.7-0.5-1.4-0.7-2C125.1,146.3,124.9,145.9,124.8,145.6z"/>
	<path d="M153.1,159.1c0.7,0,1.3-0.1,1.7-0.2c0.5-0.1,0.8-0.3,1.1-0.5s0.5-0.5,0.6-0.7s0.1-0.6,0.1-0.9c0-0.7-0.3-1.3-1-1.8
		c-0.7-0.5-1.9-1-3.6-1.5c-0.7-0.3-1.5-0.5-2.2-0.9s-1.4-0.7-2-1.3c-0.6-0.5-1.1-1.1-1.4-1.9s-0.5-1.6-0.5-2.6s0.2-2,0.6-2.8
		c0.4-0.9,0.9-1.5,1.7-2.2s1.6-1,2.6-1.3s2.2-0.5,3.4-0.5c1.5,0,2.8,0.1,4,0.5c1.1,0.3,2,0.7,2.8,1.1l-1.5,4
		c-0.6-0.3-1.3-0.6-2.1-0.9s-1.7-0.4-2.8-0.4c-1.2,0-2.1,0.1-2.6,0.5c-0.5,0.3-0.8,0.9-0.8,1.5c0,0.4,0.1,0.7,0.3,1
		c0.2,0.3,0.5,0.5,0.8,0.7c0.3,0.2,0.7,0.4,1.2,0.6c0.5,0.2,1,0.4,1.5,0.5c1.1,0.4,2.2,0.9,3,1.3c0.9,0.4,1.6,0.9,2.2,1.5
		c0.6,0.5,1,1.2,1.3,2c0.3,0.7,0.4,1.7,0.4,2.8c0,2.1-0.7,3.8-2.2,4.9c-1.5,1.1-3.7,1.7-6.7,1.7c-1,0-1.9-0.1-2.7-0.2
		c-0.8-0.1-1.5-0.3-2.2-0.5c-0.6-0.2-1.1-0.3-1.6-0.5c-0.5-0.2-0.8-0.4-1.1-0.5l1.4-4c0.7,0.3,1.5,0.7,2.5,1
		C150.5,159,151.7,159.1,153.1,159.1z"/>
	<path d="M166,163v-22.5h15.2v4.2H171v4.4h9v4.2h-9v5.4h10.9v4.2L166,163L166,163z"/>
	<path d="M195.9,163.5c-3.6,0-6.5-1-8.4-3c-2-2-2.9-4.9-2.9-8.7c0-1.9,0.3-3.5,0.9-5c0.6-1.5,1.4-2.7,2.4-3.7s2.2-1.7,3.6-2.3
		c1.4-0.5,3-0.8,4.6-0.8c0.9,0,1.8,0.1,2.6,0.2c0.8,0.1,1.5,0.3,2,0.5c0.6,0.2,1.1,0.4,1.5,0.5c0.4,0.2,0.7,0.3,0.9,0.5l-1.5,4.1
		c-0.7-0.3-1.5-0.7-2.4-0.9s-2-0.4-3.2-0.4c-0.8,0-1.5,0.1-2.3,0.4c-0.7,0.3-1.4,0.7-2,1.3s-1,1.3-1.4,2.2c-0.3,0.9-0.5,2-0.5,3.3
		c0,1,0.1,2,0.3,2.9c0.2,0.9,0.6,1.7,1.1,2.4c0.5,0.7,1.1,1.1,2,1.5c0.8,0.4,1.8,0.5,3,0.5c0.7,0,1.4-0.1,2-0.1
		c0.6-0.1,1.1-0.2,1.5-0.3c0.5-0.1,0.9-0.3,1.2-0.4c0.3-0.1,0.7-0.3,0.9-0.4l1.4,4c-0.7,0.4-1.7,0.8-3,1.1
		C199.1,163.3,197.6,163.5,195.9,163.5z"/>
	<path d="M215.5,163.5c-1.6,0-3-0.2-4.1-0.7c-1.1-0.5-2.1-1.1-2.8-1.9s-1.3-1.7-1.7-2.8c-0.3-1.1-0.5-2.3-0.5-3.6v-14h5v13.6
		c0,0.9,0.1,1.7,0.3,2.4s0.5,1.1,0.9,1.5c0.3,0.4,0.8,0.7,1.3,0.9c0.5,0.2,1.1,0.3,1.7,0.3c1.2,0,2.2-0.4,3-1.1
		c0.7-0.7,1.1-2,1.1-3.9v-13.6h5v14c0,1.3-0.2,2.6-0.5,3.6c-0.3,1.1-0.9,2.1-1.7,2.8c-0.7,0.8-1.7,1.4-2.9,1.8
		C218.6,163.1,217.2,163.5,215.5,163.5z"/>
	<path d="M236.3,140.2c3.4,0,6,0.6,7.8,1.8c1.8,1.2,2.7,3.1,2.7,5.6c0,1.6-0.3,2.9-1.1,3.8c-0.7,1-1.7,1.7-3.2,2.4
		c0.5,0.5,0.9,1.2,1.4,2c0.5,0.7,1,1.5,1.5,2.3s0.9,1.6,1.4,2.5c0.5,0.9,0.9,1.7,1.3,2.5h-5.7c-0.4-0.7-0.8-1.5-1.3-2.2
		c-0.4-0.7-0.9-1.5-1.3-2.2c-0.5-0.7-0.9-1.4-1.3-2c-0.4-0.7-0.9-1.2-1.3-1.7h-2.5v8.2h-5v-22.2c1.1-0.2,2.2-0.3,3.4-0.5
		C234.4,140.2,235.4,140.2,236.3,140.2z M236.6,144.5c-0.3,0-0.7,0-1,0c-0.3,0-0.5,0.1-0.8,0.1v6.1h1.4c1.9,0,3.3-0.3,4.1-0.7
		c0.8-0.5,1.2-1.3,1.2-2.4c0-1.1-0.4-1.9-1.3-2.4C239.4,144.7,238.3,144.5,236.6,144.5z"/>
	<path d="M251.4,140.5h5V163h-5V140.5z"/>
	<path d="M278.4,140.5v4.3h-6.8V163h-5v-18.2h-6.8v-4.3H278.4z"/>
	<path d="M291,149.7c0.9-1.5,1.7-3.1,2.6-4.6c0.8-1.5,1.6-3.1,2.3-4.6h5.6c-1.2,2.4-2.5,4.8-3.8,7.1c-1.3,2.3-2.7,4.6-4.2,6.9v8.6
		h-5v-8.5c-1.5-2.3-2.9-4.6-4.2-6.9c-1.3-2.4-2.6-4.6-3.8-7.1h5.9c0.7,1.5,1.4,3.1,2.2,4.6C289.3,146.7,290.2,148.1,291,149.7z"/>
</g>
<g>
	<circle class="st0" cx="149.8" cy="64.1" r="63.1"/>
	<g>
		<g>
			<path class="st1" d="M130,56c0,0-0.9-4.1-4.1-7.3l7.1-6.1c0,0,5.2,2.1,10.2,2c0,0,4.4,0,8.5-2c0,0,6.2,2.1,9.7,2.2
				c0,0,6.1-0.1,8.7-2.2l6.7,6.1c0,0-3.5,5-3.4,7.7h-3.3c0,0-0.1-4.2,2.2-7.1l-2.9-2.4c0,0-4.5,1.8-8.9,1.8c0,0-6.5-0.1-9.1-2.1
				c0,0-4.2,2-8.5,1.7c0,0-6.6-0.1-8.7-1.3l-3.4,2.4c0,0,3.3,4.3,2.5,7.1h-3.2L130,56z"/>
			<path class="st2" d="M135.6,50.5c0,0,9.8,3.2,15.8-0.8c0,0,5.9,4.3,16.6,0.6c0,0-2.4,3.8-1.5,6h-29.2
				C137.3,56.3,137.3,52.3,135.6,50.5z"/>
			<path class="st2" d="M141.1,79.7h21.1c0,0-5.7,5.3-10.4,6.4C151.6,86.1,143.4,83.6,141.1,79.7z"/>
			<path class="st1" d="M129,79.7h4.2c0,0,4.7,5.9,9.7,8.1c0,0,8.3,3.2,8.7,4.3c0,0,7.7-4.1,10.2-4.8c0,0,4.6-3,8.1-7.7h4.6
				c0,0-6,8.2-11.4,10.6c0,0-7.1,3-11.1,6.7c0,0-3.4-3.3-12-6.5C140.2,90.5,131,84,129,79.7z"/>
			<polygon class="st2" points="151.8,86.7 152.3,87.8 153.5,88 152.6,88.8 152.8,90 151.8,89.4 150.7,90 150.9,88.8 150,88 
				151.2,87.8 			"/>
			<polygon class="st1" points="129,59 131.7,59 133,70.7 135,59 137,59 138.8,71 140.5,59 143.1,59 140.5,78.4 138.2,78.4 
				136,66.9 134.3,78.4 131.6,78.4 			"/>
			<polygon class="st2" points="152.6,59 146,59 145,60 145,65.9 151,71.8 150.9,76 147.9,76 147.8,71.8 145.2,71.8 145.2,77.5 
				146.1,78.4 152.6,78.4 153.8,77.5 153.8,71 147.8,65.1 147.7,61.4 151.2,61.5 151.1,65.1 153.8,65.1 153.8,60.2 			"/>
			<polygon class="st2" points="164,59.3 157.2,59.3 156.1,60.4 156.1,77.5 157.2,78.4 164,78.4 165.6,77.5 165.6,72.5 162.9,72.3 
				162.8,76.1 159,76.2 158.8,61.8 162.4,61.8 162.4,65.7 165.2,65.7 165.3,60.3 			"/>
			<polygon class="st1" points="167.6,59 170,59 170,75.9 175,75.9 175,78.4 167.8,78.4 			"/>
		</g>
		<g>
			<path class="st3" d="M112.5,23.9l6.3,13.3h1.8l2.2-3.2l1.6,3.2h2.2l6.3-13.3c0,0-2.5-0.9-3.6,0.5l-3.4,7.9c0,0-0.7,0.4-1.5-2.2
				l2.8-6.5c0,0-3-0.7-3.8,1.1l-3.3,7.5l-4.2-8.7C116,23.5,111.8,22.3,112.5,23.9z"/>
			<g>
				<path class="st3" d="M136.8,23.4l-6,13.7h3l1.8-2.8l4.8-0.1l1.9,2.9h3l-5.9-13.5C139.4,23.7,138.5,22.4,136.8,23.4z"/>
				<polygon points="137.8,28.1 136.6,31.3 139.3,31.3 				"/>
			</g>
			<path class="st3" d="M143.6,25l5.6,12.1h2.8l5.8-12.9c0,0-1.7-1.5-3.2,0l-3.7,8l-4.2-8.1c0,0-2.2-1.5-3.7-0.1L143.6,25z"/>
			<path class="st3" d="M159.4,24v13.1h2.6v-8.1c0,0,0.5-0.9,1-0.1l3.2,8.1h2.1l3.2-8.3c0,0,0.3-0.5,0.5,0v8.3h2.8V23.7h-3.4
				c0,0-1.1,0-1.7,1.4l-2.3,6.9c0,0-0.3,0.4-0.5,0.1l-2.8-7.3c0,0-0.3-1.1-1.6-1.1h-3V24z"/>
			<g>
				<path class="st3" d="M182.6,23.5l-6,13.7h3l1.8-2.8l4.8-0.1l1.9,2.9h3l-5.9-13.5C185.3,23.7,184.3,22.5,182.6,23.5z"/>
				<polygon points="183.6,28.2 182.4,31.3 185.1,31.3 				"/>
			</g>
		</g>
		<g>
			<path class="st4" d="M112.1,73.3c0,0.2,0.1,0.3,0.1,0.5c0.1,0.1,0.1,0.2,0.1,0.3c0.1,0.1,0.1,0.1,0.2,0.1s0.1,0,0.3,0
				c0.2,0,0.3-0.1,0.4-0.3c0.1-0.2,0.2-0.5,0.3-0.9c0.1-0.2,0.1-0.4,0.1-0.6c0.1-0.2,0.1-0.4,0.3-0.5c0.1-0.1,0.3-0.3,0.4-0.4
				c0.2-0.1,0.4-0.2,0.7-0.2c0.3-0.1,0.5,0,0.7,0.1c0.2,0.1,0.4,0.2,0.6,0.3c0.2,0.1,0.3,0.3,0.4,0.6c0.1,0.3,0.2,0.5,0.3,0.9
				c0.1,0.4,0.1,0.7,0,1s-0.1,0.5-0.2,0.7l-1.1-0.2c0.1-0.2,0.1-0.3,0.1-0.5c0.1-0.2,0.1-0.5,0-0.7c-0.1-0.3-0.1-0.5-0.2-0.7
				c-0.1-0.1-0.3-0.2-0.4-0.1c-0.1,0-0.2,0.1-0.3,0.1c-0.1,0.1-0.1,0.1-0.1,0.3c-0.1,0.1-0.1,0.2-0.1,0.3c0,0.1-0.1,0.3-0.1,0.4
				c-0.1,0.3-0.1,0.6-0.2,0.8c-0.1,0.2-0.2,0.4-0.3,0.6c-0.1,0.1-0.3,0.3-0.5,0.4c-0.2,0.1-0.4,0.1-0.7,0.2
				c-0.5,0.1-0.9-0.1-1.3-0.4c-0.3-0.3-0.5-0.9-0.7-1.6c-0.1-0.3-0.1-0.5-0.1-0.7s0-0.4,0.1-0.5c0-0.1,0.1-0.3,0.1-0.4
				c0.1-0.1,0.1-0.2,0.1-0.3l1.1,0.2c-0.1,0.2-0.1,0.4-0.1,0.7C112,72.6,112,72.9,112.1,73.3z"/>
			<path class="st4" d="M111.7,77l5.5-1.5l1,3.8l-1.1,0.3l-0.7-2.5l-1.1,0.3l0.6,2.2l-1,0.3l-0.6-2.2L113,78l0.7,2.7l-1.1,0.3
				L111.7,77z"/>
			<path class="st4" d="M114.2,84.8c-0.3-0.9-0.4-1.6-0.1-2.3c0.3-0.7,0.9-1.1,1.7-1.5c0.4-0.2,0.9-0.3,1.3-0.3
				c0.4,0,0.7,0.1,1.1,0.2c0.3,0.1,0.6,0.3,0.9,0.6c0.3,0.3,0.5,0.6,0.6,1c0.1,0.2,0.1,0.4,0.2,0.6s0.1,0.4,0.1,0.5s0,0.3,0,0.4
				c0,0.1,0,0.2,0,0.3l-1.1,0.1c0-0.2,0-0.4,0-0.7s-0.1-0.5-0.2-0.8c-0.1-0.2-0.2-0.3-0.3-0.5c-0.1-0.1-0.3-0.3-0.5-0.3
				s-0.4-0.1-0.7-0.1c-0.3,0-0.5,0.1-0.8,0.2c-0.3,0.1-0.5,0.2-0.7,0.3c-0.2,0.1-0.3,0.3-0.4,0.5c-0.1,0.2-0.1,0.4-0.1,0.6
				s0.1,0.5,0.1,0.7c0.1,0.2,0.1,0.3,0.2,0.5c0.1,0.1,0.1,0.3,0.2,0.3s0.1,0.2,0.2,0.3c0.1,0.1,0.1,0.1,0.2,0.2l-0.8,0.7
				c-0.2-0.1-0.3-0.3-0.6-0.6C114.5,85.4,114.3,85.1,114.2,84.8z"/>
			<path class="st4" d="M116.6,89.6c-0.2-0.3-0.3-0.7-0.4-1c-0.1-0.3-0.1-0.6,0-0.9s0.2-0.5,0.4-0.7c0.2-0.2,0.4-0.4,0.7-0.6l3-1.8
				l0.7,1.1l-3,1.8c-0.2,0.1-0.3,0.3-0.5,0.4c-0.1,0.1-0.2,0.3-0.2,0.4c-0.1,0.1-0.1,0.3,0,0.4c0,0.1,0.1,0.3,0.1,0.4
				c0.1,0.3,0.4,0.5,0.7,0.5c0.3,0.1,0.6,0,1-0.3l3-1.8l0.7,1.1l-3,1.8c-0.3,0.2-0.6,0.3-0.9,0.3c-0.3,0.1-0.5,0.1-0.9,0
				c-0.3-0.1-0.5-0.2-0.8-0.4C117.1,90.2,116.9,89.9,116.6,89.6z"/>
			<path class="st4" d="M124.6,90.5c0.5,0.7,0.9,1.3,0.9,1.8c0.1,0.5-0.1,1-0.7,1.4c-0.3,0.3-0.6,0.4-0.9,0.4
				c-0.3,0-0.6-0.1-0.9-0.3c-0.1,0.2-0.1,0.4-0.1,0.6c-0.1,0.2-0.1,0.4-0.2,0.7c-0.1,0.2-0.1,0.5-0.3,0.7c-0.1,0.2-0.2,0.5-0.3,0.7
				l-0.9-1.1c0.1-0.2,0.1-0.4,0.3-0.6c0.1-0.2,0.1-0.4,0.2-0.6c0.1-0.2,0.1-0.4,0.2-0.6c0.1-0.2,0.1-0.3,0.1-0.5l-0.4-0.5l-1.6,1.3
				l-0.8-1l4.4-3.6c0.2,0.2,0.4,0.4,0.7,0.6C124.4,90.1,124.4,90.4,124.6,90.5z M123.8,91.4c-0.1-0.1-0.1-0.1-0.1-0.2
				c-0.1-0.1-0.1-0.1-0.1-0.1l-1.2,1l0.2,0.3c0.3,0.4,0.6,0.6,0.8,0.7c0.2,0.1,0.5,0.1,0.7-0.1c0.2-0.2,0.3-0.4,0.3-0.6
				C124.2,92,124,91.6,123.8,91.4z"/>
			<path class="st4" d="M126.9,93.3l0.9,0.9l-4,4.1l-0.9-0.9L126.9,93.3z"/>
			<path class="st4" d="M131.9,97.7l-0.7,0.9l-1.3-1.1l-2.9,3.6l-1-0.8l2.9-3.6l-1.3-1.1l0.7-0.9L131.9,97.7z"/>
			<path class="st4" d="M133.2,101.2c0.4-0.2,0.8-0.5,1.1-0.7c0.4-0.2,0.7-0.5,1.1-0.7l1.2,0.7c-0.6,0.4-1.1,0.7-1.7,1.1
				c-0.6,0.3-1.2,0.7-1.8,0.9l-1.1,1.9l-1.1-0.7l1.1-1.9c0-0.7,0-1.4,0-2.1s0.1-1.3,0.1-2l1.3,0.7c-0.1,0.4-0.1,0.9-0.1,1.3
				C133.1,100.2,133.2,100.7,133.2,101.2z"/>
			<path class="st4" d="M139.2,107.8c-0.9-0.3-1.5-0.8-1.7-1.5c-0.3-0.7-0.3-1.4,0.1-2.4c0.1-0.5,0.4-0.8,0.7-1.1
				c0.3-0.3,0.5-0.5,0.9-0.7s0.7-0.2,1.1-0.2s0.7,0.1,1.1,0.2c0.2,0.1,0.4,0.2,0.6,0.3c0.2,0.1,0.3,0.2,0.5,0.3
				c0.1,0.1,0.2,0.2,0.3,0.3c0.1,0.1,0.1,0.1,0.1,0.2l-0.7,0.9c-0.1-0.1-0.3-0.3-0.5-0.4s-0.4-0.3-0.7-0.3c-0.2-0.1-0.4-0.1-0.6-0.1
				c-0.2,0-0.4,0.1-0.6,0.1c-0.2,0.1-0.3,0.2-0.5,0.4c-0.1,0.2-0.3,0.5-0.4,0.7c-0.1,0.3-0.1,0.5-0.2,0.7c0,0.2,0,0.5,0.1,0.7
				c0.1,0.2,0.2,0.4,0.3,0.5c0.1,0.1,0.4,0.3,0.7,0.4c0.2,0.1,0.3,0.1,0.5,0.1s0.3,0.1,0.4,0.1c0.1,0,0.2,0,0.3,0c0.1,0,0.2,0,0.3,0
				v1.1c-0.2,0.1-0.5,0.1-0.8,0C140,108,139.6,108,139.2,107.8z"/>
			<path class="st4" d="M148.1,107c-0.1,0.5-0.3,0.9-0.5,1.2c-0.2,0.3-0.5,0.6-0.7,0.8s-0.6,0.3-1,0.4c-0.3,0.1-0.7,0.1-1.1-0.1
				c-0.4-0.1-0.7-0.2-1.1-0.4c-0.3-0.2-0.6-0.5-0.8-0.7s-0.3-0.7-0.4-1c-0.1-0.4-0.1-0.8,0.1-1.3c0.1-0.5,0.3-0.9,0.5-1.2
				c0.2-0.3,0.5-0.6,0.8-0.8c0.3-0.2,0.7-0.3,1-0.4s0.7-0.1,1.1,0c0.4,0.1,0.7,0.2,1.1,0.4c0.3,0.2,0.6,0.5,0.8,0.7
				c0.2,0.3,0.3,0.7,0.4,1C148.2,106,148.1,106.5,148.1,107z M143.8,106.1c-0.1,0.3-0.1,0.5-0.1,0.7c0,0.3,0.1,0.5,0.2,0.6
				c0.1,0.2,0.2,0.3,0.4,0.5c0.1,0.1,0.3,0.2,0.6,0.3c0.2,0.1,0.5,0.1,0.7,0c0.2-0.1,0.4-0.1,0.5-0.3c0.1-0.1,0.3-0.3,0.4-0.5
				s0.2-0.5,0.3-0.7c0.1-0.3,0.1-0.5,0.1-0.7c0-0.3-0.1-0.5-0.2-0.6c-0.1-0.2-0.2-0.3-0.4-0.5s-0.3-0.2-0.6-0.3
				c-0.3-0.1-0.5-0.1-0.7,0c-0.2,0.1-0.4,0.1-0.5,0.3c-0.1,0.1-0.3,0.3-0.4,0.5C143.9,105.6,143.8,105.8,143.8,106.1z"/>
			<path class="st4" d="M150.8,104.2c0.1,0.2,0.2,0.4,0.3,0.7c0.1,0.3,0.3,0.5,0.4,0.9c0.1,0.3,0.3,0.6,0.4,0.9s0.3,0.6,0.3,0.9
				c0.1-0.3,0.3-0.6,0.4-0.9c0.1-0.3,0.3-0.6,0.5-0.9c0.1-0.3,0.3-0.6,0.4-0.9c0.1-0.3,0.3-0.5,0.3-0.7h1.1c0.1,0.4,0.1,0.8,0.1,1.3
				c0,0.5,0.1,0.9,0.1,1.5c0,0.5,0.1,1,0.1,1.5c0,0.5,0,1,0.1,1.5l-1.3-0.1c0-0.5,0-1.1,0-1.8c0-0.7,0-1.3-0.1-2
				c-0.1,0.2-0.2,0.5-0.3,0.7c-0.1,0.3-0.3,0.5-0.4,0.8c-0.1,0.3-0.3,0.5-0.3,0.8c-0.1,0.3-0.2,0.5-0.3,0.7h-0.9
				c-0.1-0.2-0.1-0.4-0.3-0.7c-0.1-0.3-0.2-0.5-0.3-0.8c-0.1-0.3-0.2-0.5-0.3-0.9c-0.1-0.3-0.2-0.5-0.3-0.8c-0.1,0.7-0.1,1.3-0.2,2
				c-0.1,0.7-0.1,1.3-0.1,1.8l-1.3-0.1c0.1-0.5,0.1-0.9,0.1-1.4c0.1-0.5,0.1-1,0.1-1.5s0.1-1,0.1-1.5c0.1-0.5,0.1-0.9,0.2-1.3
				L150.8,104.2z"/>
			<path class="st4" d="M158,103.9c0.9-0.1,1.5-0.1,2,0.1c0.5,0.2,0.8,0.7,0.9,1.3c0.1,0.7-0.1,1.2-0.5,1.5
				c-0.4,0.3-1.1,0.6-1.9,0.7l-0.4,0.1l0.3,1.9l-1.3,0.2l-0.8-5.6c0.3-0.1,0.5-0.2,0.9-0.3C157.5,104,157.8,103.9,158,103.9z
				 M158.3,104.9c-0.1,0-0.2,0-0.3,0.1c-0.1,0-0.1,0.1-0.2,0.1l0.2,1.6l0.4-0.1c0.5-0.1,0.7-0.2,0.9-0.3c0.2-0.1,0.3-0.4,0.3-0.7
				c0-0.1-0.1-0.3-0.1-0.4c-0.1-0.1-0.1-0.1-0.3-0.2c-0.1-0.1-0.3-0.1-0.4-0.1S158.4,104.9,158.3,104.9z"/>
			<path class="st4" d="M166,108c-0.1-0.2-0.3-0.3-0.3-0.5c-0.1-0.2-0.3-0.3-0.4-0.5l-2.2,0.6c0,0.2,0,0.5-0.1,0.7
				c0,0.2,0,0.5,0,0.7l-1.3,0.3c0.1-0.7,0.1-1.3,0.1-1.8c0.1-0.5,0.1-1.1,0.1-1.5c0.1-0.5,0.1-0.9,0.2-1.4c0.1-0.5,0.1-0.9,0.2-1.3
				l1.2-0.3c0.3,0.3,0.6,0.7,0.9,1c0.3,0.3,0.6,0.7,0.9,1.1c0.3,0.4,0.6,0.8,0.9,1.3c0.3,0.5,0.7,0.9,1.1,1.5L166,108z M163.3,104.2
				c0,0.1,0,0.2,0,0.3s0,0.3-0.1,0.5c0,0.2-0.1,0.4-0.1,0.7c0,0.3-0.1,0.5-0.1,0.7l1.5-0.5c-0.1-0.2-0.3-0.4-0.5-0.6
				c-0.1-0.2-0.3-0.4-0.4-0.5c-0.1-0.1-0.2-0.3-0.3-0.4S163.3,104.3,163.3,104.2z"/>
			<path class="st4" d="M172,105.6c-0.6-0.5-1.3-0.9-1.9-1.3c-0.7-0.4-1.3-0.7-2-1.1l1.5,3.4l-1.1,0.5l-2.4-5.2l0.9-0.5
				c0.3,0.1,0.5,0.2,0.8,0.3c0.3,0.1,0.6,0.3,0.9,0.5c0.3,0.2,0.7,0.3,1,0.5c0.3,0.2,0.7,0.4,0.9,0.6l-1.3-3l1.1-0.5l2.4,5.2
				L172,105.6z"/>
			<path class="st4" d="M174.5,100.2c0-0.5-0.1-0.9-0.1-1.3c-0.1-0.5-0.1-0.9-0.1-1.3l1.2-0.8c0.1,0.7,0.1,1.3,0.2,2
				c0.1,0.7,0.1,1.3,0.1,2l1.2,1.8l-1.1,0.7l-1.2-1.8c-0.6-0.3-1.3-0.6-1.9-0.9c-0.6-0.3-1.2-0.6-1.8-0.9l1.3-0.8
				c0.3,0.2,0.7,0.5,1.1,0.7C173.7,99.8,174.1,100,174.5,100.2z"/>
			<path class="st4" d="M183.1,96l0.7,0.8l-2.8,2.6l-4-4.2l0.9-0.9l3.2,3.4L183.1,96z"/>
			<path class="st4" d="M180.3,92.2l0.9-0.9l4.3,3.8l-0.9,0.9L180.3,92.2z"/>
			<path class="st4" d="M182.8,89.2c0.2,0,0.5,0.1,0.7,0.1c0.3,0.1,0.6,0.1,0.9,0.1c0.3,0.1,0.7,0.1,1,0.2c0.3,0.1,0.7,0.1,1,0.2
				c-0.2-0.3-0.3-0.5-0.5-0.8c-0.2-0.3-0.4-0.6-0.5-0.9c-0.2-0.3-0.3-0.5-0.5-0.8c-0.1-0.3-0.3-0.5-0.4-0.7l0.7-1
				c0.3,0.1,0.7,0.3,1.1,0.6c0.4,0.2,0.9,0.5,1.3,0.7c0.5,0.3,0.9,0.5,1.3,0.7c0.5,0.3,0.9,0.5,1.3,0.7l-0.7,1.1
				c-0.5-0.3-1-0.6-1.5-0.9c-0.5-0.3-1.1-0.7-1.7-1c0.1,0.2,0.3,0.5,0.5,0.7c0.1,0.3,0.3,0.5,0.5,0.7c0.2,0.3,0.3,0.5,0.5,0.7
				c0.1,0.2,0.3,0.4,0.4,0.6l-0.5,0.7c-0.2-0.1-0.4-0.1-0.7-0.1c-0.3-0.1-0.5-0.1-0.9-0.1c-0.3-0.1-0.6-0.1-0.9-0.1
				c-0.3-0.1-0.6-0.1-0.8-0.1c0.5,0.4,1.1,0.8,1.6,1.2c0.5,0.4,1,0.7,1.5,1.1l-0.7,1.1c-0.3-0.3-0.7-0.5-1.1-0.9
				c-0.4-0.3-0.8-0.6-1.2-0.9c-0.4-0.3-0.8-0.6-1.1-0.9c-0.3-0.3-0.7-0.6-1-0.8L182.8,89.2z"/>
			<path class="st4" d="M185.7,84.4l0.6-1.1l5.1,2.6l-0.6,1.1L185.7,84.4z"/>
			<path class="st4" d="M188.2,78.3l1,0.4l-0.6,1.6l4.3,1.6l-0.5,1.2l-4.3-1.6l-0.6,1.6l-1-0.4L188.2,78.3z"/>
			<path class="st4" d="M193.9,79l-5.6-1.3l0.9-3.8l1.1,0.3l-0.6,2.5l1.1,0.3l0.5-2.2l1,0.3l-0.5,2.2l1.3,0.3l0.6-2.7l1.1,0.3
				L193.9,79z"/>
			<path class="st4" d="M192.7,68.4c0.5,0.1,0.9,0.1,1.3,0.3s0.7,0.4,0.9,0.7c0.2,0.3,0.3,0.7,0.5,1.1c0.1,0.4,0.1,0.9,0.1,1.4
				c0,0.2-0.1,0.5-0.1,0.8c-0.1,0.3-0.1,0.6-0.2,0.9l-5.6-0.5c0-0.3-0.1-0.6,0-0.9c0-0.3,0-0.6,0.1-0.8c0.1-0.5,0.1-0.9,0.3-1.3
				c0.1-0.4,0.3-0.7,0.6-1c0.3-0.3,0.6-0.5,0.9-0.6C191.7,68.4,192.1,68.4,192.7,68.4z M194.1,72.3c0-0.1,0-0.1,0-0.2
				c0-0.1,0-0.2,0-0.3c0.1-0.7-0.1-1.1-0.3-1.5c-0.3-0.3-0.7-0.5-1.3-0.6c-0.6-0.1-1.1,0.1-1.4,0.3s-0.5,0.7-0.6,1.3
				c0,0.1,0,0.2,0,0.3s0,0.2,0,0.3L194.1,72.3z"/>
		</g>
	</g>
</g>
<g>
	<path class="st2" d="M22.6,186.3l-4.3-6.4c-0.6-0.9-1.1-1.5-1.7-2c-0.5-0.5-1.1-0.7-1.9-0.8v-0.5h2.4c0.8,0,1.6,0.2,2.1,0.7
		c0.6,0.5,1.1,1.2,1.7,2l3.5,5.4l5.1-8.2h1.2l-5.7,9.3v7h-2.5V186.3z"/>
	<path class="st2" d="M32.5,192.5c-0.8-0.5-1.5-1.3-1.9-2.2c-0.4-0.9-0.7-1.9-0.7-3.1c0-1.1,0.2-2.2,0.7-3.1s1.1-1.6,1.9-2.2
		c0.8-0.5,1.8-0.8,3-0.8c1.1,0,2.1,0.3,3,0.8c0.8,0.5,1.5,1.3,1.9,2.2c0.4,0.9,0.7,1.9,0.7,3.1c0,1.1-0.2,2.2-0.7,3.1
		c-0.4,0.9-1.1,1.6-1.9,2.2c-0.8,0.5-1.8,0.8-3,0.8C34.3,193.3,33.3,193,32.5,192.5z M37.6,190.8c0.5-1,0.8-2.2,0.8-3.6
		c0-1.5-0.3-2.7-0.8-3.6c-0.5-1-1.3-1.4-2.2-1.4c-0.9,0-1.6,0.5-2.2,1.4c-0.5,1-0.8,2.2-0.8,3.6c0,1.5,0.3,2.7,0.8,3.6
		c0.5,1,1.3,1.4,2.2,1.4C36.3,192.3,37.1,191.8,37.6,190.8z"/>
	<path class="st2" d="M43.9,188.8v-4.4c0-0.8-0.1-1.5-0.3-1.9c-0.2-0.4-0.7-0.6-1.4-0.6h-0.2v-0.6h2.3c0.6,0,1,0.1,1.4,0.2
		c0.3,0.2,0.5,0.5,0.7,0.9c0.1,0.4,0.2,1.1,0.2,1.9v4.4c0,1.2,0.2,2,0.7,2.6c0.5,0.5,1.1,0.8,1.8,0.8c0.9,0,1.7-0.5,2.4-1.4v-9.4
		h2.5V193h-1.5l-0.9-1h-0.1c-0.4,0.4-0.8,0.7-1.4,0.9c-0.5,0.2-1.2,0.4-1.8,0.4C45.3,193.3,43.9,191.8,43.9,188.8z"/>
	<path class="st2" d="M64,184.2c-0.4-0.9-0.8-1.6-1.1-1.9c-0.4-0.4-0.8-0.6-1.3-0.6v-0.5c0.1,0,0.2,0,0.4,0c0.2,0,0.3,0,0.5,0
		c0.9,0,1.8,0.2,2.5,0.7c0.7,0.4,1.3,1.2,1.9,2.4l2.2,5.2l3.4-8h1.3l-5.1,11.9H68L64,184.2z"/>
	<path class="st2" d="M76,192.4c-0.8-0.6-1.1-1.4-1.1-2.6c0-1.2,0.6-2.1,1.7-2.7c1.1-0.6,2.7-0.8,4.7-0.8H82c0-1.6-0.2-2.7-0.6-3.3
		c-0.4-0.6-1.1-0.9-1.9-0.9c-0.7,0-1.3,0.2-1.7,0.5c-0.4,0.3-0.7,0.9-0.9,1.7h-1.2c0-0.6,0-1,0.1-1.4c0.1-0.3,0.2-0.7,0.5-0.9
		c0.3-0.3,0.8-0.5,1.4-0.7c0.7-0.1,1.4-0.2,2.3-0.2c1.4,0,2.5,0.4,3.3,1.1c0.8,0.8,1.2,2.1,1.2,4.1v6.7H83l-0.9-1.1H82
		c-0.3,0.4-0.7,0.7-1.3,1c-0.6,0.3-1.2,0.4-2.1,0.4C77.7,193.3,76.8,193,76,192.4z M82,190.6v-3.3h-0.6c-1.2,0-2.2,0.2-2.8,0.7
		c-0.7,0.4-1,1.1-1,1.8c0,0.7,0.2,1.3,0.6,1.7c0.4,0.4,0.9,0.6,1.5,0.6C80.6,192.1,81.4,191.6,82,190.6z"/>
	<path class="st2" d="M87.8,179.7c0-0.8-0.1-1.5-0.3-1.9c-0.2-0.4-0.7-0.6-1.4-0.6h-0.4v-0.6h2.4c0.6,0,1,0.1,1.4,0.2
		c0.3,0.2,0.5,0.5,0.7,0.9c0.1,0.4,0.2,1.1,0.2,1.9V193h-2.5V179.7z"/>
	<path class="st2" d="M93.9,188.8v-4.4c0-0.8-0.1-1.5-0.3-1.9c-0.2-0.4-0.7-0.6-1.4-0.6h-0.2v-0.6h2.3c0.6,0,1,0.1,1.4,0.2
		c0.3,0.2,0.5,0.5,0.7,0.9c0.1,0.4,0.2,1.1,0.2,1.9v4.4c0,1.2,0.2,2,0.7,2.6c0.5,0.5,1.1,0.8,1.8,0.8c0.9,0,1.7-0.5,2.4-1.4v-9.4
		h2.5V193h-1.5l-0.9-1h-0.1c-0.4,0.4-0.8,0.7-1.4,0.9c-0.5,0.2-1.2,0.4-1.8,0.4C95.3,193.3,93.9,191.8,93.9,188.8z"/>
	<path class="st2" d="M109.1,192.5c-0.8-0.5-1.4-1.3-1.8-2.2c-0.4-0.9-0.6-1.9-0.6-3.1c0-1.2,0.2-2.2,0.6-3.1c0.4-0.9,1-1.6,1.8-2.2
		s1.7-0.8,2.7-0.8c1.6,0,2.9,0.5,3.8,1.4c0.9,0.9,1.3,2.2,1.3,3.9l0,1.1h-7.5c0,1.4,0.3,2.6,0.9,3.4c0.6,0.8,1.3,1.2,2.3,1.2
		c0.8,0,1.4-0.2,2-0.5s1-0.8,1.5-1.5l0.5,0.4c-0.5,0.9-1.1,1.5-1.9,1.9c-0.7,0.4-1.6,0.7-2.6,0.7C110.8,193.3,109.9,193,109.1,192.5
		z M114.2,186.6c0-2.9-0.8-4.4-2.5-4.4c-0.7,0-1.3,0.4-1.8,1.2c-0.5,0.8-0.7,1.9-0.7,3.2H114.2z"/>
	<path class="st2" d="M126,184.4c0-0.8-0.1-1.5-0.3-1.9c-0.2-0.4-0.7-0.6-1.4-0.6h-0.4v-0.6h2.4c0.6,0,1,0.1,1.4,0.2
		c0.3,0.2,0.5,0.5,0.7,0.9c0.1,0.4,0.2,1.1,0.2,1.9v8.6H126V184.4z M126.1,179.5c-0.3-0.3-0.4-0.7-0.4-1.2c0-0.3,0.1-0.6,0.3-0.8
		c0.2-0.2,0.5-0.3,0.9-0.3c0.4,0,0.8,0.2,1.1,0.5c0.3,0.3,0.4,0.7,0.4,1.2c0,0.4-0.1,0.7-0.3,0.9c-0.2,0.2-0.5,0.3-0.9,0.3
		C126.7,180,126.3,179.8,126.1,179.5z"/>
	<path class="st2" d="M133.2,192.4c-0.6-0.6-0.8-1.4-0.8-2.5v-7.5h-1.7v-1h1.7v-2.2l1.2-1.5h1.3v3.7h2.9v1h-2.9v7.6
		c0,0.8,0.1,1.3,0.4,1.7c0.3,0.4,0.7,0.6,1.2,0.6c0.4,0,0.7,0,1-0.1s0.6-0.2,0.9-0.4l0.3,0.5c-0.8,0.7-1.9,1-3.1,1
		C134.5,193.3,133.7,193,133.2,192.4z"/>
	<path class="st2" d="M144.2,186.9c0.3-0.6,0.7-1.3,1.3-2c0.5-0.7,1-1.4,1.2-1.9c0.3-0.6,0.4-1.2,0.4-2.1c0-1.2-0.3-2.1-0.9-2.8
		c-0.6-0.6-1.3-0.9-2.2-0.9c-1,0-1.9,0.4-2.6,1.1c-0.7,0.7-1.2,1.8-1.5,3.2h-0.5c0-0.9,0-1.6,0.1-2.1c0.1-0.5,0.2-0.9,0.5-1.3
		c0.5-0.6,1.1-1,2-1.4c0.9-0.4,1.8-0.6,2.8-0.6c1.4,0,2.6,0.4,3.6,1.1c1,0.7,1.5,1.9,1.5,3.6c0,0.7-0.1,1.3-0.4,1.8
		c-0.2,0.6-0.5,1-0.9,1.4c-0.3,0.4-0.8,0.9-1.4,1.4c-0.8,0.7-1.3,1.3-1.7,1.8c-0.4,0.5-0.6,1.1-0.6,1.8h-1.2
		C143.7,188.3,143.9,187.5,144.2,186.9z M143.3,193c-0.3-0.3-0.4-0.6-0.4-1s0.1-0.7,0.4-1c0.3-0.3,0.6-0.4,1-0.4
		c0.4,0,0.7,0.1,1,0.4c0.3,0.3,0.4,0.6,0.4,1c0,0.4-0.1,0.7-0.4,1c-0.3,0.3-0.6,0.4-1,0.4C143.9,193.3,143.6,193.2,143.3,193z"/>
	<path class="st2" d="M158.6,179.6c-0.3-0.9-0.7-1.6-1.1-2c-0.4-0.4-0.9-0.6-1.6-0.6v-0.5l0.9,0c1,0,1.8,0.2,2.6,0.6
		c0.8,0.4,1.4,1.3,1.8,2.5l3.3,9.3l2.5-7.5l-0.6-1.8c-0.4-0.9-0.7-1.6-1.1-2c-0.4-0.4-0.9-0.6-1.6-0.6v-0.5c0.1,0,0.2,0,0.4,0
		c0.2,0,0.3,0,0.5,0c1,0,1.8,0.2,2.6,0.6c0.8,0.4,1.4,1.3,1.8,2.5l3.4,9.4l4.2-12.3h1.1l-5.7,16.6h-0.6l-3.7-10.2l-3.5,10.2h-0.6
		L158.6,179.6z"/>
	<path class="st2" d="M180.4,192.5c-0.8-0.5-1.4-1.3-1.8-2.2c-0.4-0.9-0.6-1.9-0.6-3.1c0-1.2,0.2-2.2,0.6-3.1c0.4-0.9,1-1.6,1.8-2.2
		s1.7-0.8,2.7-0.8c1.6,0,2.9,0.5,3.8,1.4c0.9,0.9,1.3,2.2,1.3,3.9l0,1.1h-7.5c0,1.4,0.3,2.6,0.9,3.4c0.6,0.8,1.3,1.2,2.3,1.2
		c0.8,0,1.4-0.2,2-0.5s1-0.8,1.5-1.5l0.5,0.4c-0.5,0.9-1.1,1.5-1.9,1.9c-0.7,0.4-1.6,0.7-2.6,0.7C182.2,193.3,181.2,193,180.4,192.5
		z M185.5,186.6c0-2.9-0.8-4.4-2.5-4.4c-0.7,0-1.3,0.4-1.8,1.2c-0.5,0.8-0.7,1.9-0.7,3.2H185.5z"/>
	<path class="st2" d="M197.1,192.3c-0.3-0.3-0.4-0.6-0.5-1c-0.1-0.4-0.1-0.9-0.1-1.7h0.6c0.1,0.8,0.5,1.5,1.1,2
		c0.6,0.5,1.3,0.7,2.3,0.7c0.9,0,1.6-0.2,2-0.5c0.4-0.3,0.7-0.7,0.7-1.3c0-0.5-0.2-0.9-0.5-1.2c-0.4-0.3-0.9-0.6-1.7-1l-1.4-0.6
		c-1-0.4-1.8-0.9-2.3-1.4c-0.5-0.5-0.8-1.2-0.8-2c0-1,0.4-1.8,1.2-2.4c0.8-0.6,1.8-0.9,3.1-0.9c1.8,0,3.1,0.3,3.8,1
		c0.3,0.3,0.5,0.6,0.5,1c0.1,0.4,0.1,0.9,0.1,1.7h-0.6c-0.1-0.8-0.5-1.5-1.1-2c-0.6-0.5-1.3-0.7-2.3-0.7c-0.8,0-1.3,0.2-1.8,0.5
		c-0.4,0.3-0.6,0.7-0.6,1.2c0,0.8,0.6,1.5,1.9,2l1.5,0.6c1.1,0.5,2,1,2.5,1.5c0.5,0.5,0.8,1.2,0.8,2c0,1-0.4,1.8-1.3,2.4
		c-0.8,0.6-1.9,0.9-3.3,0.9C199.1,193.3,197.8,192.9,197.1,192.3z"/>
	<path class="st2" d="M210,192.5c-0.8-0.5-1.4-1.3-1.8-2.2c-0.4-0.9-0.6-1.9-0.6-3.1c0-1.2,0.2-2.2,0.6-3.1c0.4-0.9,1-1.6,1.8-2.2
		s1.7-0.8,2.7-0.8c1.6,0,2.9,0.5,3.8,1.4c0.9,0.9,1.3,2.2,1.3,3.9l0,1.1h-7.5c0,1.4,0.3,2.6,0.9,3.4c0.6,0.8,1.3,1.2,2.3,1.2
		c0.8,0,1.4-0.2,2-0.5s1-0.8,1.5-1.5l0.5,0.4c-0.5,0.9-1.1,1.5-1.9,1.9c-0.7,0.4-1.6,0.7-2.6,0.7C211.8,193.3,210.8,193,210,192.5z
		 M215.1,186.6c0-2.9-0.8-4.4-2.5-4.4c-0.7,0-1.3,0.4-1.8,1.2c-0.5,0.8-0.7,1.9-0.7,3.2H215.1z"/>
	<path class="st2" d="M222.3,192.5c-0.8-0.5-1.5-1.3-1.9-2.2c-0.4-0.9-0.6-1.9-0.6-3.1c0-1.1,0.2-2.2,0.6-3.1c0.4-0.9,1-1.6,1.9-2.2
		s1.9-0.8,3.1-0.8c1.8,0,3.1,0.3,3.6,0.9c0.3,0.3,0.5,0.6,0.5,1.1c0.1,0.4,0.1,1.2,0.1,2.2h-0.5c-0.1-1-0.4-1.8-1-2.3
		c-0.6-0.5-1.3-0.8-2.3-0.8c-1.1,0-2,0.5-2.6,1.4c-0.6,0.9-0.9,2.1-0.9,3.7c0,1.6,0.3,2.8,0.9,3.7c0.6,0.9,1.4,1.4,2.6,1.4
		c0.8,0,1.5-0.2,2.1-0.5c0.5-0.3,1-0.8,1.5-1.5l0.6,0.4c-0.5,0.9-1.2,1.5-1.9,1.9c-0.7,0.4-1.7,0.7-2.7,0.7
		C224.1,193.3,223.1,193,222.3,192.5z"/>
	<path class="st2" d="M232.5,188.8v-4.4c0-0.8-0.1-1.5-0.3-1.9c-0.2-0.4-0.7-0.6-1.4-0.6h-0.2v-0.6h2.3c0.6,0,1,0.1,1.4,0.2
		c0.3,0.2,0.5,0.5,0.7,0.9c0.1,0.4,0.2,1.1,0.2,1.9v4.4c0,1.2,0.2,2,0.7,2.6c0.5,0.5,1.1,0.8,1.8,0.8c0.9,0,1.7-0.5,2.4-1.4v-9.4
		h2.5V193H241l-0.9-1H240c-0.4,0.4-0.8,0.7-1.4,0.9c-0.5,0.2-1.2,0.4-1.8,0.4C234,193.3,232.5,191.8,232.5,188.8z"/>
	<path class="st2" d="M246.2,184.4c0-0.8-0.1-1.5-0.3-1.9c-0.2-0.4-0.7-0.6-1.4-0.6h-0.2v-0.6h2.1c0.6,0,1.1,0.1,1.4,0.2
		c0.3,0.2,0.6,0.4,0.7,0.8c0.3-0.3,0.8-0.7,1.3-0.9c0.5-0.3,1.1-0.4,1.8-0.4c0.7,0,1.2,0.1,1.6,0.4c0.2,0.1,0.3,0.3,0.5,0.5
		c0.1,0.2,0.3,0.4,0.4,0.6l-1.1,0.8c-0.2-0.2-0.4-0.4-0.8-0.6c-0.3-0.1-0.7-0.2-1.1-0.2c-0.5,0-0.9,0.1-1.3,0.3
		c-0.4,0.2-0.7,0.5-1,0.8c0,0.2,0,0.5,0,0.9v8.4h-2.5V184.4z"/>
	<path class="st2" d="M257.4,192.5c-0.8-0.5-1.4-1.3-1.8-2.2c-0.4-0.9-0.6-1.9-0.6-3.1c0-1.2,0.2-2.2,0.6-3.1c0.4-0.9,1-1.6,1.8-2.2
		c0.8-0.5,1.7-0.8,2.7-0.8c1.6,0,2.9,0.5,3.8,1.4c0.9,0.9,1.3,2.2,1.3,3.9l0,1.1h-7.5c0,1.4,0.3,2.6,0.9,3.4
		c0.6,0.8,1.3,1.2,2.3,1.2c0.8,0,1.4-0.2,2-0.5s1-0.8,1.5-1.5l0.5,0.4c-0.5,0.9-1.1,1.5-1.9,1.9c-0.7,0.4-1.6,0.7-2.6,0.7
		C259.2,193.3,258.2,193,257.4,192.5z M262.5,186.6c0-2.9-0.8-4.4-2.5-4.4c-0.7,0-1.3,0.4-1.8,1.2c-0.5,0.8-0.7,1.9-0.7,3.2H262.5z"
		/>
	<path class="st2" d="M274.4,184.4c0-0.8-0.1-1.5-0.3-1.9c-0.2-0.4-0.7-0.6-1.4-0.6h-0.4v-0.6h2.4c0.6,0,1,0.1,1.4,0.2
		c0.3,0.2,0.5,0.5,0.7,0.9c0.1,0.4,0.2,1.1,0.2,1.9v8.6h-2.5V184.4z M274.4,179.5c-0.3-0.3-0.4-0.7-0.4-1.2c0-0.3,0.1-0.6,0.3-0.8
		c0.2-0.2,0.5-0.3,0.9-0.3c0.4,0,0.8,0.2,1.1,0.5c0.3,0.3,0.4,0.7,0.4,1.2c0,0.4-0.1,0.7-0.3,0.9c-0.2,0.2-0.5,0.3-0.9,0.3
		C275.1,180,274.7,179.8,274.4,179.5z"/>
	<path class="st2" d="M281.5,192.4c-0.6-0.6-0.8-1.4-0.8-2.5v-7.5H279v-1h1.7v-2.2l1.2-1.5h1.3v3.7h2.9v1h-2.9v7.6
		c0,0.8,0.1,1.3,0.4,1.7c0.3,0.4,0.7,0.6,1.2,0.6c0.4,0,0.7,0,1-0.1c0.3-0.1,0.6-0.2,0.9-0.4l0.3,0.5c-0.8,0.7-1.9,1-3.1,1
		C282.9,193.3,282.1,193,281.5,192.4z"/>
</g>
</svg>
